<?xml version="1.0" standalone="no"?>
<!DOCTYPE svg PUBLIC "-//W3C//DTD SVG 20010904//EN"
 "http://www.w3.org/TR/2001/REC-SVG-20010904/DTD/svg10.dtd">
<svg version="1.0" xmlns="http://www.w3.org/2000/svg"
 width="235.200000pt" height="133.906244pt" viewBox="0 0 235.200000 133.906244"
 preserveAspectRatio="xMidYMid meet">
<metadata>
Created by Potrace Professional 1.0m
</metadata>
<g transform="translate(-2.400000,136.757555) rotate(-360.00) scale(0.002667,-0.002667)"
fill="#000000" stroke="none">
<path d="M32782 51090 c-215 -110 -431 -303 -494 -442 -62 -137 -143 -248
-180 -248 -37 0 -68 -324 -68 -720 0 -420 38 -720 90 -720 50 0 90 -81 90
-180 0 -99 38 -180 85 -180 46 0 103 -456 127 -1012 48 -1154 130 -1785 247
-1908 45 -48 81 -197 81 -333 0 -135 41 -271 90 -302 50 -31 90 -134 90 -230
0 -96 41 -175 90 -175 50 0 90 -139 90 -310 0 -170 -40 -334 -90 -365 -49 -31
-90 -117 -90 -192 0 -177 -219 -393 -399 -393 -77 0 -141 -40 -141 -90 0 -49
-81 -90 -180 -90 -99 0 -180 -40 -180 -90 0 -49 -61 -90 -136 -90 -75 0 -207
-37 -293 -82 -86 -45 -398 -195 -694 -332 -574 -266 -1577 -1170 -1577 -1421
0 -80 -31 -145 -68 -145 -79 0 -292 -641 -292 -881 0 -89 -37 -201 -81 -248
-367 -385 -323 -5214 51 -5600 l110 -114 427 272 c236 149 542 271 681 271
138 0 252 41 252 90 0 50 81 90 180 90 99 0 180 31 180 69 0 37 89 108 197
157 325 147 509 571 516 1192 4 310 47 562 97 562 50 0 90 -99 90 -220 0 -121
36 -242 80 -269 88 -54 175 -473 249 -1198 l48 -473 -768 0 c-423 0 -793 -40
-824 -90 -31 -49 -118 -90 -194 -90 -820 0 -1193 -2124 -527 -3004 195 -257
804 -343 880 -123 24 71 132 13 300 -164 143 -151 332 -302 419 -334 229 -86
195 -213 -151 -559 -169 -169 -333 -390 -366 -492 -32 -101 -96 -184 -142
-184 -46 0 -84 -61 -84 -136 0 -75 -36 -207 -79 -293 -140 -276 -281 -792
-281 -1026 0 -196 -155 -776 -232 -871 -36 -44 -1157 555 -1193 638 -17 37
-88 68 -158 68 -71 0 -321 85 -555 189 -235 104 -528 230 -652 280 -124 51
-295 128 -381 172 -86 43 -218 79 -293 79 -75 0 -136 41 -136 90 0 50 -62 90
-138 90 -501 0 -2022 992 -2022 1318 0 67 -32 122 -70 122 -39 0 -123 176
-186 391 -198 669 -81 2328 258 3659 56 223 124 557 150 743 26 186 83 361
128 388 44 27 80 207 80 399 0 192 35 371 77 397 43 26 105 282 138 568 33
286 84 678 114 870 53 346 -88 1214 -247 1516 -45 86 -82 199 -82 250 0 146
-789 899 -943 899 -75 0 -137 41 -137 90 0 50 -81 90 -180 90 -99 0 -180 41
-180 90 0 50 -82 90 -181 90 -100 0 -252 38 -338 84 -86 46 -288 137 -448 202
-161 65 -293 149 -293 186 0 37 -56 68 -124 68 -182 0 -338 225 -273 394 31
80 133 146 227 146 93 0 170 36 170 81 0 76 236 122 1238 239 523 61 1205 386
1262 601 22 88 77 159 120 159 44 0 80 342 80 760 0 418 41 784 90 815 50 31
90 131 90 223 0 99 110 216 270 286 306 136 343 303 112 515 -304 280 -561
1138 -563 1880 -2 632 -476 1821 -725 1821 -45 0 -256 179 -469 399 -213 219
-507 423 -654 454 -146 31 -410 98 -587 150 -427 126 -2244 -38 -2244 -202 0
-45 -80 -81 -177 -81 -160 0 -346 -87 -997 -464 -449 -261 -1138 -1045 -1411
-1607 -309 -636 -356 -831 -479 -1979 -320 -2988 -259 -2773 -997 -3521 -341
-345 -619 -687 -619 -758 0 -72 -35 -131 -78 -131 -43 0 -103 -186 -134 -412
-48 -351 -259 -869 -418 -1028 -121 -121 -450 -847 -450 -993 0 -92 -41 -191
-90 -222 -117 -72 -117 -918 0 -990 50 -31 90 -154 90 -275 0 -121 40 -220 90
-220 50 0 90 -65 90 -145 0 -168 608 -755 783 -755 64 0 117 -31 117 -68 0
-79 641 -292 881 -292 89 0 201 -37 249 -82 85 -82 375 -124 1885 -274 1184
-117 2205 -332 2205 -464 0 -44 63 -80 139 -80 77 0 241 -102 365 -226 l227
-226 -44 -1057 c-72 -1762 -327 -2768 -327 -1291 0 484 -31 633 -143 676 -142
54 -667 -196 -667 -319 0 -35 -51 -118 -112 -183 -181 -191 -467 -845 -563
-1289 -221 -1020 -246 -3285 -36 -3285 45 0 81 -65 81 -145 0 -203 357 -837
652 -1160 307 -336 -185 -1215 -680 -1215 -44 0 -193 -121 -332 -270 -395
-422 -540 -325 -540 362 0 191 -36 370 -80 397 -44 27 -102 181 -129 343 -26
161 -94 475 -151 698 -57 223 -125 537 -151 698 -27 160 -85 292 -129 292 -44
0 -80 139 -80 310 0 170 -40 334 -90 365 -49 31 -90 172 -90 315 0 143 -40
284 -90 315 -49 31 -90 152 -90 270 0 118 -40 239 -90 270 -49 31 -90 154 -90
275 0 121 -40 220 -90 220 -49 0 -90 63 -90 139 0 77 -81 307 -180 512 -99
205 -180 426 -180 491 0 65 -36 118 -80 118 -43 0 -101 71 -129 158 -197 621
-952 1364 -1868 1837 -418 215 -758 452 -782 543 -23 89 -82 162 -130 162
-138 0 0 1180 195 1665 147 367 253 1172 174 1322 -44 83 -80 255 -80 382 0
127 -38 231 -84 231 -46 0 -109 79 -140 175 -30 97 -235 367 -456 600 -220
233 -400 478 -400 544 0 67 -40 121 -90 121 -50 0 -90 81 -90 180 0 99 -31
180 -68 180 -274 0 -455 1853 -206 2102 120 120 123 1289 4 1363 -113 70 -118
225 -6 225 46 0 144 -61 218 -135 74 -74 199 -135 277 -135 77 0 141 -40 141
-90 0 -49 227 -90 504 -90 l504 0 306 306 c168 168 306 389 306 490 0 101 40
208 90 239 50 31 90 118 90 194 0 76 122 252 270 391 253 236 363 540 195 540
-89 0 -285 807 -285 1177 0 173 46 263 134 263 248 0 428 622 433 1500 l6 825
-246 323 c-287 376 -662 592 -1028 592 -142 0 -287 28 -321 62 -183 183 -828
300 -1676 302 l-942 4 -408 -207 c-528 -267 -720 -467 -979 -1016 -117 -247
-249 -520 -293 -606 -44 -86 -80 -256 -80 -377 0 -122 -41 -246 -90 -277 -50
-31 -91 -144 -91 -253 -3 -326 -510 -1592 -639 -1592 -44 0 -80 -78 -80 -172
0 -95 -30 -186 -67 -203 -95 -42 -473 -787 -473 -931 0 -65 -47 -135 -103
-153 -146 -49 -150 -1834 -5 -1979 130 -130 145 -702 18 -702 -49 0 -90 -53
-90 -118 0 -65 -81 -205 -180 -311 -99 -107 -180 -256 -180 -332 0 -77 -30
-139 -67 -140 -81 -1 -293 -436 -293 -602 0 -64 -40 -117 -90 -117 -49 0 -90
-79 -90 -175 0 -96 -40 -199 -90 -230 -49 -31 -90 -154 -90 -275 0 -121 -40
-220 -90 -220 -49 0 -90 -102 -90 -226 0 -125 -36 -297 -79 -383 -148 -292
-281 -798 -281 -1067 0 -147 -37 -306 -81 -353 -45 -48 -105 -288 -134 -536
-28 -247 -101 -875 -161 -1395 -525 -4524 261 -9540 1494 -9540 78 0 142 -38
142 -84 0 -46 88 -96 195 -112 251 -37 320 -239 105 -304 -203 -61 -958 -423
-1020 -488 -25 -27 -231 -188 -459 -360 -227 -171 -551 -504 -720 -740 -168
-235 -336 -429 -373 -430 -38 -1 -68 -55 -68 -120 0 -65 -81 -205 -180 -311
-99 -107 -180 -256 -180 -332 0 -77 -40 -139 -90 -139 -49 0 -90 -61 -90 -136
0 -75 -47 -227 -104 -338 -223 -432 -256 -520 -256 -689 0 -97 -40 -201 -90
-232 -49 -31 -90 -172 -90 -315 0 -143 -36 -282 -80 -309 -45 -27 -103 -202
-131 -388 -27 -186 -94 -561 -148 -833 -347 -1751 -537 -3368 -683 -5827 l-61
-1013 -1248 0 -1249 0 0 -182 0 -183 1417 25 1418 25 63 945 c182 2757 380
4478 704 6120 53 272 120 647 147 832 27 186 86 338 130 338 45 0 81 86 81
191 0 236 380 1373 472 1414 38 17 68 79 68 140 0 159 214 593 293 594 37 1
67 54 67 119 0 65 72 197 160 293 88 95 259 316 380 489 368 524 1257 1260
1524 1260 53 0 96 41 96 90 0 50 99 90 220 90 121 0 244 41 275 90 31 50 296
90 590 90 795 0 739 368 -95 626 -223 69 -443 159 -490 200 -48 41 -153 74
-236 74 -201 0 -984 739 -984 929 0 83 -40 151 -90 151 -49 0 -90 119 -90 265
0 145 -36 287 -80 314 -198 122 -412 2532 -408 4596 3 1963 208 4522 397 4950
43 99 104 322 134 495 31 173 78 447 106 608 28 162 87 316 131 343 44 27 80
146 80 264 0 118 41 239 90 270 50 31 90 154 90 275 0 121 41 220 90 220 50 0
90 65 90 145 0 130 511 1184 628 1295 26 25 105 156 175 293 163 315 234 311
381 -23 66 -148 146 -270 177 -270 31 0 107 -121 169 -270 62 -148 147 -270
191 -270 43 0 79 -81 79 -180 0 -99 41 -180 90 -180 50 0 90 -81 90 -180 0
-99 41 -180 90 -180 50 0 90 -99 90 -220 0 -121 40 -244 90 -275 49 -31 90
-382 90 -780 l0 -724 -158 71 c-641 292 -1793 88 -2254 -400 l-297 -315 38
-1941 c63 -3137 399 -3988 1604 -4069 502 -34 527 17 527 1093 0 556 39 1003
90 1035 50 31 90 134 90 230 0 96 41 175 90 175 50 0 90 56 90 125 0 144 379
415 582 415 76 0 138 43 138 95 0 103 1750 66 2354 -50 l328 -63 54 887 c30
487 79 1382 108 1989 44 882 216 1625 216 930 0 -95 51 -190 113 -211 142 -47
125 -1533 -18 -1580 -52 -18 -95 -188 -95 -379 0 -191 -40 -372 -90 -403 -329
-204 119 -1755 507 -1755 68 0 123 -40 123 -90 0 -49 81 -90 180 -90 99 0 180
-40 180 -90 0 -49 81 -90 180 -90 99 0 180 -40 180 -90 0 -49 64 -90 143 -90
171 0 1117 -962 1117 -1137 0 -68 40 -123 90 -123 50 0 90 -81 90 -180 0 -99
41 -180 90 -180 50 0 90 -81 90 -180 0 -99 41 -180 90 -180 50 0 90 -61 90
-136 0 -75 36 -207 79 -293 259 -508 641 -1635 641 -1889 0 -105 41 -216 90
-247 50 -31 90 -172 90 -315 0 -143 36 -282 80 -309 44 -27 105 -191 135 -365
30 -174 80 -458 110 -631 30 -173 91 -315 135 -315 44 0 80 -134 80 -297 0
-163 37 -335 82 -382 76 -80 106 -275 244 -1560 29 -266 11 -570 -40 -675 -51
-105 -115 -298 -143 -428 -28 -131 -224 -430 -435 -666 -211 -235 -441 -513
-513 -617 -71 -105 -167 -216 -213 -247 -229 -156 -18 -1788 230 -1788 251 0
36 -362 -224 -376 -554 -32 -1373 33 -1458 114 -48 45 -247 82 -444 82 -197 0
-483 39 -635 86 -152 48 -468 138 -703 200 -236 62 -428 145 -428 184 0 38
-62 70 -138 70 -269 0 -1482 1217 -1482 1487 0 73 -40 133 -90 133 -50 0 -90
81 -90 180 0 99 -40 180 -90 180 -50 0 -90 81 -90 180 0 99 -40 180 -90 180
-49 0 -90 81 -90 180 0 99 -38 180 -84 180 -46 0 -109 79 -140 175 -182 574
-1117 1085 -1985 1085 -270 0 -491 -40 -491 -90 0 -49 -121 -90 -270 -90 -148
0 -270 -40 -270 -90 0 -49 -64 -90 -141 -90 -177 0 -1659 -1480 -1659 -1656 0
-71 -30 -142 -67 -159 -98 -43 -473 -789 -473 -939 0 -69 -30 -126 -67 -126
-38 -1 -163 -315 -280 -698 -116 -383 -245 -778 -286 -877 -42 -99 -97 -322
-123 -495 -115 -774 -218 -1244 -354 -1620 -81 -223 -148 -494 -149 -602 0
-109 -35 -219 -78 -245 -102 -63 -210 -1656 -137 -2022 116 -580 342 -313 410
485 78 905 153 1389 254 1619 43 99 100 322 127 495 119 786 168 995 243 1041
44 27 80 128 80 224 0 96 41 175 90 175 50 0 90 53 90 117 0 166 212 601 293
602 37 1 67 82 67 181 0 99 41 180 90 180 50 0 90 58 90 128 0 169 1242 1430
1530 1553 616 264 772 299 1325 299 539 0 886 -67 1420 -275 583 -227 765
-316 765 -377 0 -37 72 -68 160 -68 88 0 219 -81 290 -180 71 -99 182 -180
245 -180 180 0 135 -163 -77 -276 -272 -146 -909 -805 -1061 -1098 -70 -135
-161 -246 -202 -246 -41 0 -75 -81 -75 -180 0 -99 -40 -180 -90 -180 -49 0
-90 -81 -90 -180 0 -99 -40 -180 -90 -180 -49 0 -90 -79 -90 -175 0 -96 -41
-199 -90 -230 -50 -31 -90 -154 -90 -275 0 -121 -40 -220 -90 -220 -49 0 -90
-119 -90 -265 0 -145 -40 -289 -90 -320 -49 -31 -90 -167 -90 -302 0 -136 -36
-285 -81 -332 -44 -48 -103 -248 -130 -446 -28 -198 -94 -583 -149 -855 -134
-666 -384 -2403 -539 -3735 -196 -1686 -332 -2672 -547 -3960 -50 -297 -99
-661 -110 -810 l-19 -270 422 -27 423 -27 150 229 c83 127 190 524 237 883 48
358 124 895 169 1192 45 297 122 803 171 1125 49 322 132 848 185 1170 53 322
118 788 145 1035 27 248 86 488 131 536 45 47 82 259 82 472 0 213 36 387 81
387 44 0 103 172 131 383 95 733 168 1059 248 1108 44 27 80 166 80 309 0 143
40 284 90 315 49 31 90 175 90 320 0 146 41 265 90 265 50 0 90 57 90 126 0
150 375 896 473 939 37 17 67 82 67 145 0 137 864 1036 1150 1198 618 348 874
436 1569 542 418 64 723 63 990 -2 491 -121 483 -110 260 -349 -104 -112 -189
-256 -189 -321 0 -65 -40 -118 -90 -118 -50 0 -90 -81 -90 -180 0 -99 -40
-180 -90 -180 -50 0 -90 -81 -90 -180 0 -99 -32 -180 -70 -180 -39 0 -124
-192 -188 -427 -65 -236 -157 -534 -206 -664 -143 -382 21 -2808 203 -3000 44
-47 81 -139 81 -206 0 -67 99 -221 221 -342 407 -407 859 -221 859 352 0 421
67 443 590 200 245 -114 567 -245 715 -292 155 -49 262 -140 250 -216 -50
-336 -136 -686 -207 -850 -272 -627 -262 -3195 12 -3195 44 0 80 -66 80 -146
0 -80 118 -252 262 -382 l262 -237 50 -1035 c153 -3122 146 -3093 738 -3043
435 37 564 233 418 638 -122 335 -158 3407 -42 3523 37 37 67 381 67 766 0
1157 245 1266 1028 456 287 -297 586 -540 664 -540 78 0 165 -36 192 -80 285
-461 2841 -290 3107 208 l124 232 -127 248 c-160 309 -246 395 -555 555 -137
70 -248 161 -248 202 0 41 -53 75 -117 75 -185 0 -731 550 -939 945 -217 412
-283 629 -385 1260 -101 626 -221 1055 -388 1390 l-142 286 265 278 c146 153
266 329 266 392 0 63 32 127 71 144 38 17 221 334 406 705 414 835 628 1206
716 1245 37 16 67 108 67 202 0 95 41 173 90 173 50 0 90 79 90 175 0 96 41
199 90 230 140 87 103 1055 -48 1255 -73 96 -132 204 -132 239 0 110 3116 345
3631 273 l256 -35 -61 -236 c-134 -515 -232 -1564 -275 -2936 -41 -1321 -113
-1853 -317 -2340 -463 -1109 -824 -5146 -530 -5932 267 -714 433 -953 659
-953 75 0 161 -41 192 -90 237 -384 808 -8 892 588 90 634 138 762 285 762
157 0 481 -175 667 -361 172 -172 668 -397 1357 -617 397 -126 1673 -135 1749
-12 31 49 116 90 189 90 74 0 240 106 369 235 l235 235 -310 283 c-366 334
-654 507 -842 507 -75 0 -136 41 -136 90 0 50 -62 90 -138 90 -179 0 -762 583
-762 762 0 76 -40 138 -90 138 -49 0 -90 113 -90 252 0 139 -38 290 -84 337
-46 48 -104 471 -128 941 -24 470 -72 1026 -105 1235 -46 283 -26 414 76 517
184 184 241 174 241 -42 0 -99 41 -180 90 -180 50 0 90 -119 90 -265 0 -145
36 -287 80 -314 91 -56 176 -535 248 -1383 l48 -568 329 28 330 27 -16 540
c-16 561 -133 1813 -306 3285 -137 1157 -143 3234 -13 4005 102 610 188 1098
383 2183 131 726 259 1506 352 2137 43 297 117 682 164 855 l86 315 65 -180
c112 -312 760 -1566 860 -1665 25 -25 103 -156 173 -293 70 -136 161 -247 202
-247 41 0 75 -81 75 -180 0 -99 34 -180 75 -180 41 0 132 -111 202 -247 155
-299 558 -714 983 -1012 437 -305 540 -416 540 -580 0 -77 41 -141 90 -141
117 0 117 -692 0 -765 -50 -31 -90 -154 -90 -275 0 -121 -40 -220 -90 -220
-49 0 -90 -94 -90 -210 0 -115 -28 -238 -62 -272 -239 -239 -418 -1678 -208
-1678 50 0 90 -57 90 -126 0 -140 600 -774 733 -774 46 0 171 -81 278 -180
106 -99 246 -180 311 -180 65 0 118 -40 118 -90 0 -50 78 -90 173 -90 94 0
186 -43 204 -96 18 -53 282 -103 588 -113 l557 -16 130 178 131 179 -117 226
c-165 318 -641 722 -850 722 -96 0 -200 40 -231 90 -31 49 -205 93 -388 97
-183 4 -494 95 -692 203 l-360 196 -28 445 c-38 604 129 917 892 1667 599 588
1079 1011 1435 1264 431 306 1006 897 1159 1192 216 416 277 280 277 -613 l0
-859 -218 -219 c-121 -120 -291 -341 -380 -491 -88 -149 -193 -272 -231 -272
-39 0 -71 -53 -71 -118 0 -65 -81 -205 -180 -311 -99 -107 -180 -256 -180
-332 0 -77 -31 -139 -68 -139 -211 0 -370 -1146 -184 -1332 258 -258 1056 392
1378 1120 276 629 302 704 351 1022 208 1370 302 1316 355 -202 45 -1301 123
-1932 248 -2009 44 -27 80 -166 80 -309 0 -143 41 -284 90 -315 50 -31 90
-152 90 -270 0 -118 41 -239 90 -270 50 -31 90 -154 90 -275 0 -121 41 -220
90 -220 50 0 90 -99 90 -220 0 -121 41 -244 90 -275 50 -31 90 -337 90 -680 0
-357 -39 -625 -90 -625 -49 0 -90 -121 -90 -270 0 -148 -40 -270 -90 -270 -49
0 -90 -79 -90 -175 0 -96 -36 -197 -80 -224 -318 -196 -85 -861 301 -861 77 0
139 -40 139 -90 0 -49 81 -90 180 -90 99 0 180 -22 180 -49 0 -110 -451 -491
-581 -491 -76 0 -139 -40 -139 -90 0 -49 -119 -90 -265 -90 -145 0 -289 -40
-320 -90 -31 -49 -193 -90 -360 -90 -167 0 -329 -40 -360 -90 -31 -49 -133
-90 -228 -90 -95 0 -345 -97 -557 -216 l-385 -215 -28 -368 -27 -367 317 -317
c174 -174 379 -317 455 -317 76 0 138 -31 138 -68 0 -82 644 -292 893 -292 97
0 201 -40 232 -90 31 -49 171 -90 313 -90 440 0 542 -82 542 -437 0 -494 322
-823 804 -823 466 0 636 157 636 588 l0 332 338 -62 c671 -123 1662 -154 1761
-55 53 53 154 97 223 97 191 0 702 553 769 832 32 137 85 353 116 481 31 127
13 381 -40 562 -54 182 -149 522 -212 758 -63 235 -146 427 -185 427 -93 0
-90 570 4 679 140 164 304 1038 239 1281 -35 135 -99 488 -140 785 -42 297
-120 763 -173 1035 -53 272 -135 839 -181 1260 -150 1354 -196 1620 -278 1620
-45 0 -81 139 -81 310 0 170 -40 334 -90 365 -49 31 -90 175 -90 320 0 146
-40 265 -90 265 -49 0 -90 99 -90 220 0 121 41 244 90 275 50 31 90 150 90
264 0 492 622 1401 958 1401 67 0 122 41 122 90 0 50 122 90 270 90 149 0 270
41 270 90 0 50 151 90 336 90 l335 0 319 -337 c175 -186 409 -389 519 -450
529 -297 607 -346 725 -454 l126 -116 -190 -164 c-291 -252 -236 -533 181
-930 l370 -352 -65 -331 c-35 -182 -100 -696 -143 -1141 -43 -445 -120 -1114
-172 -1485 -52 -371 -139 -999 -194 -1395 -181 -1289 -110 -3465 113 -3465 44
0 80 -63 80 -139 0 -160 331 -516 563 -605 260 -100 182 -312 -135 -364 -940
-153 -1328 -405 -1328 -860 0 -309 351 -732 608 -732 61 0 112 -40 112 -90 0
-49 81 -90 180 -90 99 0 180 -40 180 -90 0 -49 53 -90 118 -90 65 0 197 -71
293 -157 95 -87 285 -215 422 -286 136 -70 247 -161 247 -202 0 -41 51 -75
113 -75 61 -1 229 -94 371 -208 l260 -208 -17 -909 c-10 -558 20 -931 78 -967
52 -32 95 -160 95 -285 0 -476 555 -671 1028 -361 l232 152 2 1011 1 1010 444
210 c294 139 484 299 561 473 64 144 147 262 184 262 37 0 68 210 68 466 0
456 -307 1334 -466 1334 -41 0 -74 55 -74 122 0 67 -121 248 -270 404 -317
332 -329 443 -94 861 l175 313 40 2277 c22 1253 91 2622 152 3043 140 957 146
1526 20 2165 -54 274 -71 714 -38 976 l60 477 630 25 c347 14 994 72 1440 129
446 57 1053 127 1350 156 297 28 578 88 625 132 48 44 217 80 378 80 160 0
316 40 347 90 31 50 136 90 233 90 98 0 272 62 387 137 251 164 505 90 505
-147 0 -93 41 -170 90 -170 49 0 90 -78 90 -172 0 -95 30 -186 68 -203 97 -43
472 -789 472 -939 0 -69 41 -126 90 -126 49 0 90 -119 90 -265 0 -145 36 -287
80 -314 45 -27 103 -202 130 -388 28 -186 78 -474 111 -639 34 -166 16 -460
-39 -653 -56 -193 -147 -523 -202 -733 -55 -211 -133 -464 -173 -563 -78 -192
-160 -539 -238 -1012 -27 -161 -81 -293 -120 -293 -191 0 -347 -2775 -162
-2892 278 -177 793 86 793 405 0 81 41 147 90 147 49 0 90 99 90 220 0 121 41
244 90 275 49 31 90 355 90 720 0 997 147 890 219 -160 35 -506 103 -1507 150
-2225 48 -718 110 -1628 137 -2023 31 -461 9 -840 -63 -1058 l-112 -338 198
-383 c452 -878 1152 -679 1499 425 l152 481 -54 1380 c-67 1713 -172 2695
-505 4756 -52 322 -135 848 -184 1170 -178 1175 -261 1675 -356 2160 -54 272
-97 556 -96 630 2 318 121 810 195 810 44 0 80 139 80 310 0 170 36 332 80
359 44 27 102 181 129 343 79 478 160 821 239 1013 41 99 169 494 285 877 117
383 242 697 280 698 37 0 67 81 67 180 0 99 41 180 90 180 49 0 90 55 90 123
0 333 1441 1497 1854 1497 69 0 126 36 126 80 0 44 132 103 293 132 160 28
555 101 877 161 1041 196 4050 115 4191 -113 27 -44 108 -80 179 -80 173 0
580 -362 580 -515 0 -158 360 -518 721 -721 271 -153 416 -351 607 -834 49
-124 135 -338 191 -477 55 -138 101 -363 101 -499 0 -137 37 -286 83 -333 137
-142 273 -2781 412 -8006 61 -2332 184 -2835 692 -2835 633 0 659 1822 76
5490 -102 647 -230 1670 -371 2970 -51 470 -130 1199 -176 1620 -46 421 -106
1008 -134 1305 -27 297 -96 631 -151 742 -56 112 -76 228 -45 259 77 77 1054
-947 1054 -1103 0 -68 41 -123 90 -123 50 0 90 -81 90 -180 0 -99 41 -180 90
-180 50 0 90 -81 90 -180 0 -99 33 -180 74 -180 40 0 129 -205 198 -456 68
-250 156 -475 196 -500 40 -25 72 -141 72 -259 0 -118 36 -237 80 -264 43 -27
102 -161 129 -297 27 -137 95 -431 151 -654 283 -1130 434 -2164 542 -3690 47
-668 110 -1428 140 -1687 l55 -473 6922 0 c3806 0 6921 23 6921 51 0 29 -58
110 -129 180 l-128 129 -6612 0 -6612 0 -58 383 c-32 210 -95 929 -141 1597
-46 668 -125 1478 -175 1800 -50 322 -116 767 -147 990 -31 223 -93 443 -137
491 -45 47 -81 219 -81 382 0 163 -40 297 -90 297 -49 0 -90 88 -90 197 0 258
-380 1381 -641 1894 -43 86 -79 218 -79 293 0 75 -36 136 -80 136 -43 0 -101
71 -129 157 -146 460 -1044 1476 -1525 1726 -135 70 -246 202 -246 292 0 91
-40 165 -90 165 -49 0 -90 57 -90 126 0 231 -400 904 -742 1250 -402 406 -424
635 -109 1164 126 212 252 456 280 543 29 86 88 157 131 157 44 0 80 78 80
173 0 94 30 186 68 202 97 43 1012 1866 1012 2018 0 70 41 127 90 127 50 0 90
61 90 136 0 75 36 207 79 293 44 86 125 267 180 404 56 136 146 358 202 495
55 136 136 317 180 403 43 86 79 218 79 293 0 75 41 136 90 136 50 0 90 61 90
136 0 75 36 207 79 293 44 86 121 257 172 381 50 124 176 417 280 652 104 234
189 487 189 562 0 75 41 136 90 136 50 0 90 63 90 139 0 77 81 307 180 512 99
205 180 426 180 491 0 65 41 118 90 118 50 0 90 81 90 180 0 99 41 180 90 180
50 0 90 60 90 132 0 73 81 277 180 453 99 176 180 400 180 498 0 97 41 177 90
177 50 0 90 122 90 270 0 149 41 270 90 270 53 0 90 300 90 720 0 420 -37 720
-90 720 -49 0 -90 66 -90 147 0 205 -449 570 -720 586 -421 25 -855 -30 -885
-112 -17 -44 -81 -81 -143 -81 -132 0 -952 -753 -952 -874 0 -45 -71 -163
-157 -261 -183 -207 -343 -474 -590 -980 -97 -198 -211 -430 -254 -516 -44
-86 -79 -236 -79 -332 0 -97 -40 -201 -90 -232 -49 -31 -90 -274 -90 -540 0
-760 -253 -805 -371 -66 -37 234 -113 608 -169 831 -155 620 -270 1238 -368
1980 -81 606 -131 1061 -315 2813 -50 483 34 676 188 427 31 -49 114 -90 185
-90 182 0 162 326 -27 467 -393 294 -615 2037 -299 2353 53 53 96 176 96 274
0 192 153 724 281 977 43 86 79 258 79 383 0 124 35 226 79 226 75 0 200 697
210 1170 5 279 -99 884 -195 1125 -168 423 -504 1082 -566 1110 -38 17 -68 83
-68 147 0 156 -1059 1229 -1372 1391 -137 70 -248 161 -248 202 0 41 -81 75
-180 75 -99 0 -180 41 -180 90 0 49 -81 90 -180 90 -99 0 -180 41 -180 90 0
126 -506 113 -716 -19 l-174 -108 -185 167 c-102 93 -185 207 -185 256 0 145
-386 434 -651 487 -137 27 -249 85 -249 128 0 106 -1671 101 -1869 -5 -86 -46
-348 -136 -583 -200 -236 -63 -428 -147 -428 -186 0 -38 -54 -70 -121 -70
-160 0 -881 -700 -1042 -1012 -70 -137 -161 -248 -202 -248 -41 0 -75 -81 -75
-180 0 -298 -139 -204 -367 248 -119 235 -238 447 -266 472 -28 25 -142 176
-255 337 -112 161 -377 394 -588 518 l-385 225 -781 0 c-429 0 -851 -36 -937
-80 -86 -44 -369 -172 -628 -285 -260 -113 -473 -239 -473 -280 0 -41 -58 -75
-128 -75 -162 0 -952 -784 -952 -945 0 -66 -47 -136 -104 -155 -63 -21 -107
-256 -112 -591 l-7 -557 201 -141 202 -141 0 -589 0 -589 306 -306 c168 -168
352 -306 409 -306 245 0 545 -441 545 -802 0 -198 47 -463 104 -589 l105 -229
334 0 335 0 49 -250 c128 -637 933 -1173 1392 -926 86 46 288 137 449 202 160
65 292 149 292 186 0 37 41 68 90 68 49 0 90 -66 90 -147 0 -164 -433 -573
-607 -573 -62 0 -113 -40 -113 -90 0 -49 -202 -90 -450 -90 -247 0 -450 41
-450 90 0 50 -240 90 -540 90 -300 0 -540 -40 -540 -90 0 -49 -64 -90 -141
-90 -155 0 -399 -208 -399 -340 0 -484 -558 -425 -1135 120 -233 220 -459 400
-503 400 -44 0 -166 81 -273 180 -106 99 -246 180 -311 180 -65 0 -118 41
-118 90 0 50 -81 90 -180 90 -99 0 -180 41 -180 90 0 50 -81 90 -180 90 -99 0
-180 41 -180 90 0 50 -79 90 -175 90 -96 0 -199 41 -230 90 -31 50 -137 90
-237 90 -229 0 -438 205 -438 430 0 95 -128 307 -283 470 l-284 296 104 166
c56 91 103 227 103 302 0 75 41 136 90 136 49 0 90 56 90 124 0 68 152 284
338 480 399 421 562 684 562 907 0 90 37 201 81 248 45 48 103 268 130 491 27
223 77 642 111 933 128 1084 -539 2757 -1099 2757 -68 0 -123 30 -124 68 -1
80 -436 292 -602 292 -64 0 -117 36 -117 81 0 214 -2742 298 -3780 116 -322
-56 -737 -128 -922 -159 -186 -32 -338 -94 -338 -138 0 -44 -61 -80 -136 -80
-654 0 -1240 -974 -869 -1446 l178 -226 -79 -401 c-44 -221 -55 -836 -24
-1367 l55 -965 -423 -417 c-262 -258 -404 -469 -373 -550 28 -73 51 -150 51
-170 0 -21 81 -38 180 -38 99 0 180 -40 180 -90 0 -49 122 -90 270 -90 207 0
270 -41 270 -175 0 -96 41 -200 91 -230 50 -31 83 -332 74 -669 l-16 -613 236
-236 237 -237 499 0 c274 0 499 31 499 68 0 66 625 292 809 292 317 0 -1280
-1661 -2249 -2338 -432 -303 -1260 -1169 -1260 -1319 0 -68 -34 -123 -75 -123
-41 0 -167 -213 -280 -472 -113 -260 -241 -543 -285 -629 -44 -86 -80 -256
-80 -377 0 -122 -35 -243 -77 -269 -200 -123 -240 -1232 -144 -3987 l60 -1730
-134 -133 c-148 -149 -245 -100 -245 124 0 185 -455 673 -1010 1084 -324 240
-425 372 -427 562 -2 136 -43 247 -93 247 -49 0 -90 81 -90 180 0 99 -34 180
-75 180 -41 0 -165 193 -275 429 l-201 429 48 1123 c26 618 72 1677 102 2352
l55 1228 -144 421 c-276 816 -853 1578 -1193 1578 -64 0 -117 30 -117 68 -1
37 -315 165 -698 284 -383 119 -735 250 -782 292 -48 42 -156 76 -241 76 -208
0 -979 781 -979 992 0 92 -40 192 -90 223 -56 35 -90 901 -90 2300 0 1437 -32
2245 -90 2245 -52 0 -90 284 -90 673 0 1059 -700 2027 -1467 2027 -84 0 -153
36 -153 80 0 131 -601 208 -1845 237 l-1170 27 -383 -194z m2627 -236 c152
-48 468 -138 704 -200 235 -62 427 -145 427 -184 0 -38 51 -70 113 -70 148 0
651 -436 582 -505 -29 -29 -144 32 -256 136 -112 104 -256 189 -321 189 -65 0
-118 31 -118 68 0 38 -161 119 -359 180 -431 135 -1801 151 -1801 22 0 -49
-91 -91 -202 -92 -112 -1 -304 -81 -428 -178 -124 -97 -257 -177 -297 -178
-105 -3 -446 -377 -620 -681 -236 -414 -384 -338 -415 212 -35 607 116 949
519 1173 l318 178 939 8 c516 4 1063 -31 1215 -78z m12516 -364 c-31 -49 -111
-90 -179 -90 -68 0 -332 -202 -586 -450 -537 -523 -540 -524 -540 -213 0 261
393 663 647 663 84 0 177 41 208 90 31 49 157 90 281 90 127 0 200 -39 169
-90z m3441 -12 c928 -221 1251 -507 1637 -1450 254 -621 258 -2768 6 -2768
-37 0 -90 -117 -118 -259 -29 -143 -115 -322 -192 -399 -76 -76 -139 -176
-139 -222 0 -411 -1636 -988 -1845 -650 -31 50 -134 90 -230 90 -96 0 -175 41
-175 90 0 50 43 90 96 90 121 0 294 171 430 423 127 239 139 1197 14 1197 -49
0 -90 63 -90 139 0 202 -411 581 -630 581 -285 0 -810 -611 -810 -944 0 -76
-79 -136 -180 -136 l-180 0 0 578 c0 616 -56 862 -196 862 -211 0 -344 280
-344 722 l0 466 -285 266 c-157 147 -400 290 -540 318 -357 71 -68 568 331
568 74 0 134 41 134 90 0 49 122 90 270 90 149 0 270 41 270 90 0 51 282 93
653 96 358 4 733 41 832 84 258 111 785 106 1281 -12z m1374 18 c0 -46 76
-108 169 -138 766 -243 1198 -1635 965 -3108 -152 -958 -558 -1866 -749 -1675
-36 36 -24 93 26 127 51 35 140 235 200 446 60 210 153 536 208 725 272 946
-146 2584 -839 3286 -393 399 -402 421 -160 421 99 0 180 -38 180 -84z
m-16456 -478 c417 -216 796 -580 796 -765 0 -62 41 -113 90 -113 50 0 90 -78
90 -173 0 -94 51 -190 113 -213 90 -32 90 -79 0 -231 -62 -105 -113 -269 -113
-364 0 -270 -97 -459 -235 -459 -86 0 -125 112 -125 360 0 198 -40 360 -90
360 -49 0 -90 81 -90 180 0 99 -31 180 -69 180 -37 0 -108 88 -157 195 -49
107 -170 239 -269 293 -99 53 -205 131 -236 173 -66 92 -940 29 -1564 -113
-548 -124 -945 -55 -945 164 0 87 111 215 248 285 136 70 267 149 292 174 304
313 1708 354 2264 67z m-13671 -119 c468 -63 585 -219 162 -219 -145 0 -289
-41 -320 -90 -31 -49 -136 -90 -235 -90 -172 0 -601 -183 -1067 -455 -121 -72
-550 -454 -951 -850 l-730 -720 -366 -765 c-202 -421 -436 -927 -521 -1125
-383 -892 -539 -1150 -978 -1612 l-349 -367 53 674 c138 1771 321 3134 429
3201 44 27 80 128 80 224 0 96 38 175 84 175 46 0 111 85 144 190 77 242 1097
1250 1265 1250 70 0 127 41 127 90 0 49 81 90 180 90 99 0 180 41 180 90 0 49
99 90 220 90 121 0 244 41 275 90 31 49 185 93 343 96 158 4 368 43 467 88
175 78 631 62 1508 -55z m-8933 -177 c0 -76 -71 -164 -157 -195 -215 -79
-1306 -1191 -1514 -1543 -92 -156 -200 -284 -238 -284 -39 0 -71 -81 -71 -180
0 -99 -30 -180 -67 -181 -81 -1 -293 -436 -293 -602 0 -64 -40 -117 -90 -117
-49 0 -90 -119 -90 -265 0 -145 -40 -289 -90 -320 -117 -72 -117 -918 0 -990
54 -34 90 -661 90 -1582 0 -839 36 -1596 79 -1682 44 -86 135 -277 203 -426
67 -148 145 -290 172 -315 46 -42 118 -275 372 -1192 58 -211 139 -421 180
-469 41 -47 74 -159 74 -249 l0 -163 -247 60 c-137 34 -261 95 -278 137 -17
42 -87 76 -156 76 -275 0 -1119 850 -1119 1126 0 74 -40 134 -90 134 -49 0
-90 119 -90 265 0 145 -40 289 -90 320 -49 31 -90 172 -90 315 0 143 -35 281
-78 308 -43 26 -101 161 -129 299 -108 540 -655 852 -868 496 l-95 -158 -135
175 c-176 227 -210 1514 -49 1841 39 79 150 306 247 504 201 413 411 789 477
855 107 107 270 459 270 584 0 75 41 136 90 136 50 0 90 122 90 270 0 149 36
270 80 270 44 0 102 132 129 293 117 706 153 827 452 1510 363 830 841 1069
2152 1073 l967 4 0 -138z m52245 -132 c31 -49 140 -90 242 -90 148 0 523 -296
523 -412 0 -14 -132 16 -292 67 -563 177 -1017 274 -1485 318 -260 24 -473 80
-473 125 0 112 1416 104 1485 -8z m-51291 -396 c168 -168 306 -371 306 -450 0
-79 40 -144 90 -144 50 0 90 -99 90 -220 0 -121 40 -244 90 -275 94 -58 130
-1125 38 -1125 -90 0 -747 718 -910 995 -86 146 -189 265 -227 265 -39 0 -71
162 -71 360 0 267 -36 360 -141 360 -182 0 -399 -217 -399 -399 0 -77 -40
-141 -90 -141 -50 0 -90 -81 -90 -180 0 -99 -40 -180 -90 -180 -50 0 -90 -81
-90 -180 0 -99 -40 -180 -90 -180 -50 0 -90 -81 -90 -180 0 -99 -33 -180 -74
-180 -40 0 -129 -205 -198 -456 -68 -250 -156 -475 -196 -500 -40 -25 -72
-124 -72 -221 0 -96 -36 -246 -79 -332 -133 -262 -281 -788 -281 -995 0 -108
-40 -196 -90 -196 -50 0 -90 59 -90 130 0 72 -111 184 -247 250 l-248 119 11
358 c19 613 558 2023 773 2023 39 0 71 58 71 129 0 304 1670 1803 2057 1847
17 2 169 -134 337 -302z m45459 119 c620 -331 1514 -2153 1056 -2153 -132 0
-309 280 -309 489 0 127 -41 231 -90 231 -49 0 -90 62 -90 138 0 306 -722 855
-1305 992 -1062 250 -2835 -369 -2835 -991 0 -76 -38 -139 -84 -139 -47 0 -97
-132 -113 -292 -15 -161 -69 -281 -118 -266 -361 106 335 1213 968 1541 136
70 247 161 247 202 0 41 81 75 180 75 99 0 180 41 180 90 0 49 122 90 270 90
149 0 270 41 270 90 0 182 1394 106 1773 -97z m-36642 -122 c169 -168 163
-231 -22 -231 -158 0 -1289 -1091 -1289 -1244 0 -48 -147 -235 -326 -414
l-325 -325 -158 181 c-111 129 -268 182 -538 182 l-381 0 -320 -320 -320 -320
-8 -386 c-10 -441 168 -837 410 -914 171 -54 236 -400 76 -400 -49 0 -90 -58
-90 -128 0 -162 -1138 -1320 -1516 -1543 -156 -92 -284 -200 -284 -238 0 -39
-62 -71 -139 -71 -76 0 -225 -81 -332 -180 -106 -99 -246 -180 -311 -180 -65
0 -118 -34 -118 -76 0 -80 -452 -312 -505 -259 -113 113 281 736 798 1261 334
340 607 675 607 746 0 70 30 128 68 129 80 1 292 436 292 602 0 64 41 117 90
117 50 0 90 61 90 136 0 75 38 207 84 293 46 86 252 500 457 921 l374 765 761
743 c418 408 820 742 892 742 73 0 132 41 132 90 0 49 81 90 180 90 99 0 180
41 180 90 0 49 111 91 248 91 136 1 308 41 382 89 202 131 715 108 861 -39z
m9849 -119 c0 -136 718 -299 897 -203 94 50 295 91 447 91 152 0 276 41 276
90 0 459 1180 -41 1485 -630 145 -280 144 -407 -5 -1012 l-61 -248 191 0 c104
0 190 41 190 90 0 49 81 90 180 90 190 0 242 -131 90 -225 -49 -31 -90 -261
-90 -512 0 -319 -47 -501 -157 -603 -385 -358 -544 -1464 -303 -2099 121 -318
-221 -1270 -601 -1677 l-116 -124 -154 172 c-85 94 -296 270 -469 390 -173
120 -394 290 -489 378 -96 88 -210 160 -252 160 -84 0 -519 411 -519 491 0 27
180 49 400 49 220 0 424 41 455 90 31 50 116 90 189 90 175 0 576 403 576 578
l0 136 -1005 26 -1005 25 -152 272 c-83 150 -176 393 -206 540 -30 147 -99
471 -154 718 -157 703 -214 1845 -98 1961 55 55 100 191 100 303 0 244 179
661 284 661 42 0 76 -31 76 -68z m14513 -145 l247 -213 1 -484 1 -485 269
-213 269 -212 0 -441 c0 -243 -50 -521 -110 -618 -143 -228 -24 -351 409 -421
393 -64 781 150 781 431 0 557 470 829 721 417 348 -572 175 -1328 -303 -1328
l-238 0 0 -349 0 -349 293 -109 c160 -59 362 -145 448 -191 212 -111 1239
-105 1239 8 0 50 64 90 141 90 78 0 203 61 277 135 292 292 390 116 170 -309
l-131 -254 -611 -62 c-604 -62 -1093 -177 -1397 -331 -86 -43 -218 -79 -293
-79 -75 0 -136 -40 -136 -90 0 -49 -121 -90 -270 -90 -148 0 -270 41 -270 90
0 50 -162 90 -360 90 -198 0 -360 -40 -360 -90 0 -49 -99 -90 -220 -90 -121 0
-244 -40 -275 -90 -356 -576 -1177 298 -852 906 73 137 54 217 -90 371 -108
116 -183 320 -183 495 l0 298 -360 0 c-387 0 -477 151 -219 365 335 278 396
576 379 1862 -20 1574 291 1977 1033 1340z m17865 76 c210 -34 382 -98 382
-142 0 -45 61 -81 136 -81 245 0 732 -385 845 -668 61 -153 149 -347 195 -433
113 -210 108 -1484 -6 -1554 -49 -31 -90 -135 -90 -232 0 -795 -613 -1317
-750 -639 -27 132 -74 363 -104 511 -134 662 -284 1010 -551 1283 l-287 292
-446 0 -445 0 -287 -274 -286 -273 -132 132 c-73 73 -132 178 -132 234 0 55
-243 339 -540 631 -1075 1055 60 1606 2498 1213z m-41502 -380 c172 -429 295
-951 346 -1463 90 -908 156 -1260 237 -1260 45 0 81 -78 81 -172 0 -95 50
-190 112 -210 80 -27 66 -83 -48 -197 -277 -277 -424 -771 -426 -1434 -3 -899
-261 -1167 -1213 -1264 -807 -82 -1215 -161 -1266 -243 -27 -44 -110 -80 -183
-80 -170 0 -576 -401 -576 -568 0 -218 710 -872 946 -872 74 0 134 -33 134
-74 0 -40 205 -129 456 -198 250 -68 475 -156 500 -196 25 -40 117 -72 205
-72 204 0 999 -745 999 -936 0 -79 36 -144 80 -144 43 0 111 -233 149 -517 76
-557 75 -564 -48 -1508 -98 -750 -155 -1021 -547 -2587 -222 -892 -286 -1337
-326 -2273 l-42 -990 207 -622 c209 -629 987 -1583 1290 -1583 67 0 135 -30
152 -67 43 -98 789 -473 939 -473 69 0 126 -33 126 -74 0 -40 203 -129 450
-196 248 -67 450 -156 450 -196 0 -41 99 -74 220 -74 121 0 244 -40 275 -90
31 -49 134 -90 230 -90 96 0 175 -40 175 -90 0 -49 81 -90 180 -90 99 0 180
-40 180 -90 0 -49 81 -90 180 -90 99 0 180 -40 180 -90 0 -49 81 -90 180 -90
99 0 180 -40 180 -90 0 -49 51 -90 113 -90 214 0 607 -422 607 -652 0 -256
-218 -495 -312 -342 -32 52 -178 94 -323 94 -146 0 -265 41 -265 90 0 50 -79
90 -175 90 -96 0 -199 41 -230 90 -31 50 -146 90 -257 90 -111 0 -240 37 -287
81 -118 112 -783 189 -2111 245 -619 26 -1163 85 -1211 131 -47 46 -219 83
-383 83 -164 0 -369 36 -455 79 -86 43 -318 131 -515 194 -536 171 -1174 627
-1410 1009 -114 186 -239 338 -277 338 -38 0 -69 81 -69 180 0 99 -35 180 -77
180 -114 0 -317 1563 -242 1860 177 698 422 2993 368 3439 -52 421 -680 1181
-977 1181 -78 0 -164 36 -191 80 -68 110 -797 248 -3381 636 -1079 163 -1260
203 -1260 284 0 44 -61 80 -136 80 -316 0 -1124 704 -1124 979 0 73 -48 265
-106 427 -223 616 762 2644 1285 2644 103 0 621 541 621 650 0 113 175 269
473 423 136 70 247 161 247 202 0 41 62 75 139 75 76 0 225 81 332 180 106 99
246 180 311 180 65 0 118 36 118 79 0 44 122 129 270 191 149 62 270 141 270
176 0 35 111 121 246 191 1123 584 2052 2197 1464 2544 l-270 159 0 372 c0
645 680 1072 969 608 228 -365 718 -142 1190 540 119 173 240 335 267 360 28
25 163 197 302 383 138 185 310 337 382 337 71 0 130 41 130 90 0 49 76 90
169 90 93 0 219 61 281 135 157 189 212 170 326 -112z m35158 5 c207 -32 455
-162 633 -333 279 -266 353 -390 594 -987 l104 -258 -182 -158 c-101 -87 -183
-224 -183 -305 0 -251 -269 -163 -620 203 -526 547 -1720 991 -1720 640 0 -49
-81 -90 -180 -90 -99 0 -180 -41 -180 -90 0 -49 -79 -90 -175 -90 -96 0 -199
-41 -230 -90 -56 -90 -675 -130 -675 -44 0 26 38 117 85 203 46 86 106 260
132 387 93 445 788 977 1293 990 135 4 326 42 425 86 99 44 261 59 360 34 99
-25 333 -69 519 -98z m9108 -90 c175 -83 318 -184 318 -225 0 -40 56 -73 125
-73 144 0 1212 -1031 1391 -1343 393 -687 464 -839 464 -992 0 -94 46 -185
102 -204 250 -83 100 -2012 -203 -2612 -43 -86 -79 -258 -79 -383 0 -124 -36
-226 -80 -226 -87 0 -172 -396 -249 -1147 -26 -260 -67 -473 -91 -473 -74 0
-300 253 -300 336 0 135 -222 563 -292 563 -38 1 -68 60 -68 132 0 72 -247
375 -549 673 l-549 542 52 430 c28 236 91 733 140 1104 273 2061 159 2830
-478 3216 -101 61 -105 834 -5 834 18 0 176 -68 351 -152z m-54471 -725 c83
-137 331 -437 552 -667 l402 -419 44 -616 c24 -339 73 -749 108 -911 50 -231
27 -329 -108 -450 -94 -85 -230 -337 -301 -560 -184 -574 -415 -810 -789 -810
-287 0 -1015 318 -1084 473 -16 37 -81 67 -144 67 -197 0 -411 304 -318 452
46 73 85 262 86 420 0 158 41 312 91 343 50 31 90 172 90 315 0 143 40 284 90
315 50 31 90 135 90 232 0 96 36 246 79 332 44 86 122 257 173 381 565 1372
688 1516 939 1103z m48896 -238 c271 -267 493 -536 493 -597 0 -459 732 -641
1080 -268 505 540 1109 297 1340 -540 62 -223 150 -529 196 -681 46 -152 84
-335 84 -405 0 -190 425 -650 536 -582 168 105 210 -216 97 -749 l-110 -518
-329 -150 c-433 -197 -862 -453 -899 -537 -16 -38 -80 -68 -141 -68 -60 0
-198 -82 -305 -181 l-195 -182 -259 272 c-143 149 -344 271 -447 271 -103 0
-212 41 -243 90 -31 50 -296 90 -590 90 l-535 0 0 790 c0 886 -128 1190 -500
1190 -244 0 -282 153 -116 474 231 446 256 524 256 793 0 193 -50 293 -160
322 -234 61 -416 516 -296 741 53 98 96 262 96 364 0 102 41 186 90 186 49 0
90 81 90 180 0 303 250 204 767 -305z m5209 -168 c268 -268 323 -1114 155
-2407 -60 -470 -132 -1068 -159 -1327 -40 -388 -212 -698 -212 -383 0 50 -182
90 -404 90 l-403 0 50 563 c57 622 166 914 454 1208 412 420 554 1297 345
2122 -68 266 -6 314 174 134z m-9441 -337 c31 -49 115 -90 188 -90 150 0 937
-756 937 -900 0 -170 227 -189 567 -47 257 108 333 190 333 363 0 253 206 301
411 95 178 -178 161 -433 -44 -653 l-173 -185 184 -574 c101 -316 219 -644
263 -730 236 -465 -30 -1825 -279 -1423 -55 89 -193 52 -599 -158 -1056 -549
-1743 -397 -1743 384 0 197 -368 508 -537 454 -178 -57 -363 321 -363 741 0
206 -457 743 -633 743 -40 0 -198 105 -350 233 l-277 233 0 532 0 532 316 0
c174 0 387 36 473 79 86 44 318 162 516 262 399 203 725 247 810 109z m-21015
-1845 c0 -1142 -56 -1310 -307 -922 -267 412 -229 1777 49 1777 43 0 78 61 78
135 0 74 41 135 90 135 55 0 90 -435 90 -1125z m24216 893 c93 -112 95 -180
11 -314 -59 -94 -107 -233 -107 -308 0 -75 -41 -136 -90 -136 -49 0 -90 -61
-90 -135 0 -74 -41 -135 -90 -135 -49 0 -90 160 -90 355 0 195 41 379 90 410
49 31 90 134 90 230 0 212 116 225 276 33z m-24936 -1853 c0 -52 212 -293 470
-536 l471 -441 -242 -224 c-133 -123 -304 -224 -380 -224 -76 0 -139 -40 -139
-90 0 -49 -78 -90 -172 -90 -95 0 -191 -51 -213 -112 -22 -62 -73 -83 -113
-45 -40 37 -28 158 27 270 268 546 329 873 219 1176 -132 364 -138 540 -18
466 50 -31 90 -98 90 -150z m25361 -792 c29 -1051 46 -1078 618 -1014 804 91
1524 -305 1414 -776 -56 -239 -405 -643 -557 -643 -834 0 -1643 -2623 -1182
-3835 138 -364 150 -3247 14 -3383 -59 -59 -109 -171 -111 -248 -1 -76 -61
-216 -132 -310 l-129 -171 -138 115 c-76 63 -138 227 -138 365 0 805 -1046
1527 -2213 1527 -271 0 -487 189 -487 426 0 92 -37 206 -82 253 -166 174 -337
2358 -195 2500 53 53 97 191 97 305 0 115 41 289 90 387 49 99 131 259 180
358 49 98 90 240 90 315 0 75 41 136 90 136 49 0 90 81 90 180 0 99 38 180 84
180 46 0 110 82 142 183 32 100 156 281 276 401 120 120 218 250 218 289 0 40
101 190 225 333 124 144 225 295 225 336 0 40 172 246 383 458 474 477 607
846 607 1680 l0 652 248 -29 247 -28 26 -942z m-27701 717 c0 -49 -162 -90
-360 -90 -198 0 -360 41 -360 90 0 50 162 90 360 90 198 0 360 -40 360 -90z
m-22843 -382 c69 -211 -34 -1868 -116 -1868 -44 0 -81 446 -81 990 0 867 82
1232 197 878z m40483 -223 c0 -35 -90 -252 -201 -481 l-201 -417 -361 -98
c-534 -145 -1335 -212 -1472 -122 -369 240 153 891 728 906 136 4 247 45 247
92 0 47 213 100 473 119 259 18 543 40 630 49 86 10 157 -12 157 -48z m-18565
-182 c77 -203 255 -383 379 -383 53 0 96 -40 96 -90 0 -49 43 -90 96 -90 144
0 386 -269 307 -342 -37 -35 -86 -12 -108 50 -22 61 -118 112 -212 112 -95 0
-173 41 -173 90 0 50 -79 90 -175 90 -96 0 -199 41 -230 90 -31 50 -158 90
-283 90 -150 0 -209 38 -175 113 29 61 78 183 108 270 31 86 113 157 183 157
70 0 154 -71 187 -157z m19153 32 l124 -124 -106 -281 c-73 -193 -165 -280
-298 -280 l-193 0 43 225 c24 124 79 225 122 225 44 0 80 81 80 180 0 212 57
226 228 55z m-40401 -859 c-148 -1558 -327 -1768 -327 -386 0 1025 35 1167
246 992 95 -78 116 -238 81 -606z m20373 264 l0 -180 316 0 c174 0 387 -35
473 -79 1110 -559 1266 -690 1556 -1307 225 -478 442 -535 632 -168 222 429
827 958 1456 1275 334 168 607 340 607 382 0 162 299 66 529 -170 281 -289
582 -473 775 -473 75 0 136 -40 136 -90 0 -49 122 -90 270 -90 149 0 270 -40
270 -90 0 -49 122 -90 270 -90 149 0 270 -40 270 -90 0 -49 61 -90 136 -90
866 0 1532 -1367 1447 -2970 -135 -2554 -156 -3870 -61 -3870 54 0 98 -81 98
-180 0 -99 41 -180 90 -180 50 0 90 -81 90 -180 0 -99 31 -180 68 -180 110 0
308 -519 276 -724 l-29 -188 -221 207 -221 207 -914 -16 -915 -16 -102 224
c-126 278 -136 2074 -12 2151 50 31 90 152 90 270 0 118 41 239 90 270 50 31
90 154 90 275 0 121 41 220 90 220 50 0 90 99 90 220 0 121 41 244 90 275 50
31 90 152 90 270 0 118 36 237 80 264 75 46 126 265 247 1053 29 193 10 352
-49 388 -54 33 -98 135 -98 226 0 337 -517 306 -875 -53 -113 -112 -205 -264
-205 -336 0 -73 -49 -148 -110 -169 -83 -27 -103 -634 -85 -2535 14 -1489 -11
-2541 -62 -2603 -47 -58 -100 -206 -117 -329 -52 -379 -531 -326 -1015 112
-96 86 -228 157 -293 157 -65 0 -118 41 -118 90 0 50 -81 90 -180 90 -99 0
-180 41 -180 90 0 50 -79 90 -175 90 -96 0 -199 41 -230 90 -31 50 -154 90
-275 90 -121 0 -220 36 -220 81 0 169 -1976 334 -2427 202 -175 -51 -510 -145
-745 -208 -236 -63 -428 -146 -428 -185 0 -38 -81 -70 -180 -70 -99 0 -180
-40 -180 -90 0 -49 -53 -90 -118 -90 -65 0 -197 -71 -293 -157 -706 -638
-1136 -770 -585 -181 146 156 312 387 371 513 58 127 142 300 186 386 109 215
100 1239 -11 1239 -49 0 -90 139 -90 310 0 170 -40 334 -90 365 -49 31 -90
141 -90 246 0 200 -142 695 -295 1031 -56 123 -66 618 -27 1306 68 1189 32
1422 -217 1422 -492 0 -605 -1024 -249 -2272 70 -246 68 -432 -8 -686 -57
-191 -104 -657 -104 -1035 0 -378 -36 -687 -80 -687 -43 0 -98 -71 -121 -157
-45 -172 -712 -563 -960 -563 -194 0 -637 -203 -638 -292 -1 -38 -76 -68 -168
-68 l-168 0 -48 473 c-27 259 -12 918 32 1462 45 545 108 1467 140 2050 32
584 92 1082 134 1108 43 26 77 187 77 357 0 171 41 310 90 310 50 0 90 61 90
136 0 331 993 1478 1283 1482 86 1 157 43 157 92 0 50 81 90 180 90 99 0 180
41 180 90 0 50 61 90 136 90 75 0 207 36 293 79 86 44 318 162 516 262 461
234 495 236 495 19z m35036 68 l243 -113 0 -422 c1 -232 42 -447 91 -478 50
-31 90 -130 90 -222 0 -336 418 -965 1079 -1623 778 -775 874 -941 940 -1620
171 -1757 298 -2847 458 -3915 30 -198 89 -441 132 -540 78 -179 147 -506 241
-1148 27 -186 85 -361 130 -388 44 -27 80 -221 80 -431 0 -210 42 -424 93
-475 61 -61 81 -805 58 -2156 -34 -1961 -99 -2621 -321 -3232 -54 -148 -124
-341 -155 -427 -62 -174 -822 -232 -984 -76 -88 84 -632 155 -1841 243 -371
27 -713 86 -761 132 -47 46 -237 83 -422 83 -185 0 -361 41 -392 90 -31 50
-154 90 -275 90 -121 0 -220 41 -220 90 0 50 -81 90 -180 90 -99 0 -180 41
-180 90 0 50 -51 90 -112 90 -175 0 -608 409 -608 573 0 81 -41 147 -90 147
-49 0 -90 203 -90 451 0 471 174 1169 292 1169 37 0 68 81 68 180 0 99 30 180
68 181 37 0 113 91 169 202 55 111 192 384 304 607 111 223 228 425 260 450
54 43 405 755 554 1125 117 290 187 747 268 1755 97 1205 167 1709 267 1935
45 99 101 362 127 585 45 393 148 1078 283 1873 201 1189 -811 2028 -1475
1222 -421 -511 -428 -1814 -14 -2780 76 -179 112 -350 271 -1305 45 -272 107
-642 139 -822 34 -199 18 -350 -42 -388 -55 -33 -99 -200 -99 -370 0 -171 -40
-310 -90 -310 -49 0 -90 -119 -90 -265 0 -145 -40 -289 -90 -320 -49 -31 -90
-154 -90 -275 0 -121 -40 -220 -90 -220 -49 0 -91 -71 -93 -157 -3 -151 -257
-691 -725 -1542 -232 -420 -1086 -1361 -1237 -1361 -50 0 -115 273 -145 608
-30 334 -94 731 -142 883 -48 152 -88 345 -88 429 0 84 -37 223 -82 309 -46
86 -148 306 -228 489 -79 184 -194 388 -255 454 -272 297 -439 787 -267 789
80 1 292 436 292 602 0 64 37 117 82 117 144 0 197 1631 89 2745 -265 2745 57
4275 901 4275 58 0 192 81 299 180 113 105 317 180 492 180 348 0 1017 192
1017 292 0 37 63 68 139 68 183 0 941 750 941 930 0 77 41 164 90 195 50 31
90 154 90 275 l0 220 297 0 c163 0 406 -51 539 -112z m-1310 -365 c-200 -357
-796 -880 -1066 -933 -145 -29 -286 -89 -312 -132 -82 -131 -308 -87 -308 61
0 227 657 771 1103 912 86 28 157 86 157 129 0 44 81 80 180 80 99 0 180 43
180 95 0 53 40 71 88 41 56 -34 47 -128 -22 -253z m-16986 -24 c0 -78 68 -210
152 -293 l152 -151 748 21 c411 11 748 1 748 -24 0 -78 -219 -431 -382 -617
-87 -98 -158 -213 -158 -256 0 -42 -81 -163 -180 -270 -99 -106 -180 -246
-180 -311 0 -65 -41 -118 -90 -118 -49 0 -90 -61 -90 -136 0 -75 -36 -207 -79
-293 -188 -368 -360 -836 -487 -1326 -52 -198 -122 -1595 -157 -3105 -34
-1510 -107 -2947 -161 -3195 -55 -247 -126 -582 -158 -744 -32 -161 -95 -315
-138 -342 -44 -27 -80 -146 -80 -264 0 -118 -41 -239 -90 -270 -49 -31 -90
-134 -90 -230 0 -96 -41 -175 -90 -175 -49 0 -90 -81 -90 -180 0 -99 -41 -180
-90 -180 -49 0 -90 -79 -90 -175 0 -96 -41 -199 -90 -230 -49 -31 -90 -154
-90 -275 0 -121 -36 -220 -80 -220 -43 0 -108 -91 -144 -202 l-65 -203 -44
169 c-25 93 -5 195 44 225 191 120 372 2818 203 3021 -77 93 -80 178 -10 308
53 99 96 284 96 411 0 127 41 231 90 231 49 0 90 160 90 355 0 195 41 379 90
410 49 31 90 195 90 365 0 171 41 310 90 310 49 0 90 88 90 196 0 207 148 733
281 995 43 86 79 236 79 332 0 97 41 201 90 232 183 113 104 867 -111 1053
-344 298 -1239 -56 -1239 -491 0 -67 -50 -171 -112 -233 -151 -151 -121 -3706
33 -3994 78 -147 79 -205 2 -231 -57 -19 -103 -164 -103 -323 0 -160 -36 -328
-81 -375 -44 -48 -105 -258 -135 -468 -30 -211 -78 -555 -108 -765 -30 -211
-91 -421 -135 -469 -45 -47 -81 -211 -81 -364 0 -153 -36 -317 -81 -364 -44
-48 -103 -248 -131 -446 -119 -840 -179 -1079 -305 -1205 -169 -169 -1567
-192 -1622 -27 -20 59 -99 107 -175 107 -240 0 -926 759 -926 1023 0 130 41
237 90 237 50 0 90 53 90 118 0 65 81 205 180 311 99 107 180 256 180 332 0
77 31 139 68 139 126 0 282 661 195 824 -111 207 -106 796 7 796 50 0 90 81
90 180 0 99 37 180 82 180 133 0 163 1016 80 2700 -121 2449 46 3404 835 4767
168 290 1244 1352 1376 1357 56 2 548 447 1092 989 966 960 1215 1134 1215
846z m-14352 -351 c301 -301 409 -588 222 -588 -49 0 -90 57 -90 126 0 69
-146 272 -324 450 -178 178 -278 324 -222 324 56 0 242 -140 414 -312z m33660
0 c172 -172 312 -337 312 -369 0 -31 74 -164 164 -295 91 -131 216 -381 279
-554 64 -173 158 -406 211 -517 188 -396 -45 -331 -477 133 -428 461 -584 732
-793 1380 -201 621 -139 665 304 222z m-14673 26 c326 -112 1062 -457 1125
-527 25 -28 187 -148 360 -267 360 -247 720 -631 720 -768 0 -51 81 -151 180
-222 99 -71 180 -202 180 -290 0 -88 41 -160 90 -160 49 0 90 -81 90 -180 0
-99 41 -180 90 -180 49 0 90 -79 90 -175 0 -96 41 -199 90 -230 49 -31 90
-154 90 -275 0 -121 41 -220 90 -220 49 0 90 -139 90 -310 0 -170 41 -334 90
-365 55 -34 90 -746 90 -1836 l0 -1780 -229 -105 c-126 -57 -387 -104 -580
-104 -193 0 -375 -40 -406 -90 -31 -49 -175 -90 -320 -90 -146 0 -265 -40
-265 -90 0 -49 -53 -90 -117 -90 -166 0 -601 -212 -602 -292 -1 -38 -57 -68
-126 -68 -161 0 -1232 -1051 -1398 -1372 -70 -137 -161 -248 -202 -248 -41 0
-75 -81 -75 -180 0 -99 -30 -180 -67 -181 -81 -1 -293 -436 -293 -602 0 -64
-30 -117 -67 -118 -81 -1 -293 -436 -293 -602 0 -64 -33 -117 -74 -117 -40 0
-129 -202 -196 -450 -67 -247 -156 -450 -196 -450 -41 0 -74 -122 -74 -270 0
-148 -41 -270 -90 -270 -49 0 -90 -99 -90 -220 0 -121 -41 -244 -90 -275 -49
-31 -90 -152 -90 -270 0 -118 -41 -239 -90 -270 -49 -31 -90 -152 -90 -270 0
-118 -41 -239 -90 -270 -49 -31 -90 -175 -90 -320 0 -146 -41 -265 -90 -265
-49 0 -90 -119 -90 -265 0 -145 -41 -289 -90 -320 -49 -31 -90 -152 -90 -270
0 -326 -103 -331 -667 -34 -723 381 -1433 553 -2057 500 -767 -65 -970 283
-600 1030 46 93 125 249 174 348 49 98 90 240 90 315 0 75 41 136 90 136 49 0
90 61 90 136 0 132 38 228 256 650 57 111 104 263 104 338 0 75 41 136 90 136
49 0 90 99 90 220 0 121 41 244 90 275 49 31 90 134 90 230 0 96 41 175 90
175 49 0 90 81 90 180 0 99 41 180 90 180 49 0 90 81 90 180 0 99 41 180 90
180 49 0 90 99 90 220 0 121 41 244 90 275 49 31 90 152 90 270 0 118 41 239
90 270 49 31 90 207 90 392 0 185 39 376 87 424 51 51 103 1229 124 2831 36
2700 89 3461 249 3559 44 27 80 146 80 264 0 118 41 239 90 270 49 31 90 134
90 230 0 96 41 175 90 175 49 0 90 81 90 180 0 99 41 180 90 180 49 0 90 81
90 180 0 99 36 180 79 180 44 0 129 122 191 270 62 149 138 270 170 270 31 0
158 162 280 360 122 198 249 360 281 360 32 0 79 78 104 174 67 257 1595 311
2270 80z m-44598 -361 c2 -84 44 -177 93 -208 50 -31 90 -172 90 -315 0 -143
41 -284 90 -315 50 -31 90 -142 90 -247 l0 -192 -180 193 c-99 107 -180 256
-180 332 0 77 -36 139 -79 139 -44 0 -129 122 -191 270 -62 149 -147 270 -191
270 -127 0 -91 198 69 375 l148 163 119 -156 c66 -87 121 -225 122 -309z
m7023 377 c0 -49 -40 -90 -90 -90 -49 0 -90 -66 -90 -147 0 -81 -111 -243
-247 -361 -370 -319 -375 -37 -6 365 300 326 433 398 433 233z m42345 -900
c31 -49 276 -90 545 -90 270 0 490 -40 490 -90 0 -49 -34 -90 -75 -90 -41 0
-132 -111 -202 -247 -70 -137 -153 -268 -184 -293 -106 -85 -619 -1165 -619
-1302 0 -76 -36 -138 -80 -138 -127 0 -212 -608 -207 -1485 6 -1043 101 -1935
205 -1935 45 0 82 -96 82 -213 0 -254 406 -687 645 -687 320 0 1335 -221 1335
-291 0 -38 64 -69 141 -69 182 0 399 -217 399 -399 0 -77 41 -141 90 -141 49
0 90 -81 90 -180 0 -99 -41 -180 -90 -180 -49 0 -90 41 -90 90 0 50 -79 90
-175 90 -96 0 -199 41 -230 90 -31 50 -154 90 -275 90 -121 0 -220 41 -220 90
0 50 -113 90 -252 90 -139 0 -290 37 -337 81 -48 45 -268 103 -491 130 -223
27 -633 76 -913 109 l-507 61 7 1790 c6 1276 -23 1821 -100 1898 -59 59 -107
187 -107 286 0 249 -343 1188 -605 1658 -121 216 -206 401 -190 410 17 10 144
75 283 146 139 70 318 238 398 372 224 380 1072 619 1239 349z m-47927 -2172
c108 -132 741 -438 905 -438 97 0 177 -40 177 -90 0 -49 196 -90 436 -90 l435
0 116 -482 c72 -301 95 -715 60 -1103 -30 -341 -81 -1015 -113 -1497 -44 -672
-214 -1296 -214 -788 0 55 -433 90 -1120 90 -649 0 -1143 -38 -1175 -90 -31
-49 -119 -90 -197 -90 -569 0 -1108 -1088 -1108 -2234 l0 -826 -207 0 c-233 0
-873 540 -873 737 0 70 -37 165 -81 212 -129 135 -192 851 -246 2754 l-49
1767 204 235 c113 129 270 235 350 235 80 0 189 43 241 95 52 52 334 82 625
67 l531 -27 48 -1080 c46 -1045 114 -1395 271 -1395 151 0 198 214 235 1055
20 472 76 931 124 1021 117 218 114 2244 -3 2244 -49 0 -90 89 -90 198 l0 197
336 -310 c184 -170 356 -336 382 -367z m29614 144 l115 -138 -111 -379 c-342
-1175 -496 -1649 -562 -1726 -124 -143 -87 1731 39 1950 261 457 344 504 519
293z m26221 -334 c266 -273 356 -694 252 -1176 -98 -451 -151 -787 -247 -1547
-25 -198 -67 -457 -92 -575 l-46 -216 -118 171 c-65 93 -142 312 -171 485
-118 707 -180 948 -258 998 -45 29 -86 376 -91 771 l-10 718 210 241 c230 264
401 303 571 130z m-17853 -2068 c0 -189 -322 -1260 -460 -1531 -44 -86 -80
-256 -80 -377 0 -122 -41 -246 -90 -277 -49 -31 -90 -195 -90 -365 0 -171 -41
-310 -90 -310 -137 0 -117 2385 23 2630 296 522 787 665 787 230z m26309 -456
c391 -428 432 -1047 129 -1942 -112 -328 -233 -610 -270 -627 -38 -17 -68
-108 -68 -202 0 -95 -40 -173 -90 -173 -49 0 -90 -52 -90 -115 0 -63 -120
-357 -267 -652 -147 -296 -269 -609 -270 -695 -2 -87 -43 -158 -93 -158 -49 0
-90 -61 -90 -136 0 -75 -36 -207 -79 -293 -44 -86 -121 -257 -172 -381 -50
-124 -176 -417 -280 -652 -104 -234 -189 -487 -189 -562 0 -75 -40 -136 -90
-136 -49 0 -90 -61 -90 -136 0 -75 -36 -207 -79 -293 -82 -161 -238 -526 -394
-921 -48 -124 -124 -295 -168 -381 -43 -86 -79 -218 -79 -293 0 -75 -32 -136
-70 -136 -39 0 -127 -192 -197 -427 -69 -236 -179 -482 -245 -547 l-119 -119
-54 142 c-30 78 -25 253 12 389 36 136 79 1381 95 2767 16 1466 71 2689 130
2925 209 837 495 1709 561 1710 37 0 67 81 67 180 0 99 41 180 90 180 50 0 90
53 90 118 0 65 81 205 180 311 99 107 180 229 180 273 0 101 713 838 948 980
239 145 929 146 1061 2z m-44309 -2224 c0 -99 -40 -180 -90 -180 -49 0 -90
-79 -90 -175 0 -96 -35 -196 -77 -222 -43 -26 -104 -282 -137 -568 -118 -1040
-188 -1327 -332 -1355 -307 -59 -721 1474 -444 1645 50 31 90 136 90 234 0
238 302 551 657 682 399 146 423 143 423 -61z m5130 41 c223 -33 443 -96 491
-140 47 -45 178 -81 292 -81 114 0 207 -40 207 -90 0 -49 -61 -90 -136 -90
-302 0 -732 -352 -1016 -832 -81 -137 -179 -248 -217 -248 -39 0 -71 -66 -71
-147 0 -213 -336 -472 -543 -418 -97 25 -177 82 -177 125 0 44 -61 80 -136 80
-75 0 -207 36 -293 80 -86 44 -358 170 -606 280 -247 110 -520 236 -606 280
-86 44 -261 80 -389 80 -127 0 -314 44 -415 98 l-182 98 166 149 c91 83 369
246 616 362 248 117 520 249 606 293 86 44 268 81 405 81 137 1 310 43 384 93
131 89 800 67 1620 -53z m-4590 -270 c0 -27 -81 -135 -180 -242 -133 -142
-180 -158 -180 -59 0 74 49 183 108 242 112 112 252 145 252 59z m26224 -309
c152 -382 634 -902 834 -902 67 0 122 -40 122 -90 0 -49 60 -90 134 -90 178 0
1486 -1304 1486 -1481 0 -77 30 -139 68 -140 80 -1 292 -436 292 -602 0 -64
36 -117 80 -117 44 0 106 -152 137 -337 360 -2133 360 -2327 -5 -4410 -29
-161 -80 -293 -116 -293 -35 0 -119 -202 -186 -450 -67 -247 -156 -450 -196
-450 -41 0 -74 -81 -74 -180 0 -99 -41 -180 -90 -180 -49 0 -90 -81 -90 -180
0 -99 -36 -180 -80 -180 -43 0 -101 -71 -129 -157 -65 -205 -334 -642 -533
-869 -87 -98 -158 -231 -158 -296 0 -65 -32 -118 -71 -118 -38 0 -136 -111
-217 -247 -80 -137 -251 -369 -379 -518 -128 -148 -233 -321 -233 -382 0 -62
-31 -113 -68 -113 -37 0 -121 -132 -186 -292 -65 -161 -156 -363 -202 -449
-46 -86 -84 -315 -84 -508 l0 -351 -337 -63 c-186 -35 -1128 -97 -2093 -138
-1575 -67 -2141 -129 -2884 -315 l-228 -58 -132 255 c-160 311 -492 659 -628
659 -99 0 -358 217 -358 300 0 23 172 64 383 90 1195 151 1649 554 1305 1160
-154 269 -308 430 -413 430 -134 0 -735 632 -735 774 0 69 -30 126 -67 127
-91 1 -293 445 -293 642 0 86 -41 181 -90 212 -49 31 -90 314 -90 630 0 316
41 599 90 630 49 31 90 277 90 547 0 270 36 561 81 647 44 86 292 824 551
1641 258 817 540 1647 626 1845 361 835 1116 2342 1186 2370 42 17 76 83 76
147 0 381 1885 1848 2375 1848 80 0 145 41 145 90 0 50 152 91 338 91 185 1
398 41 472 89 264 171 429 94 574 -268z m1496 213 c322 -32 626 -88 675 -124
49 -35 282 -120 518 -188 235 -67 427 -154 427 -193 0 -38 81 -70 180 -70 99
0 180 -40 180 -90 0 -49 66 -90 148 -90 190 0 385 -259 389 -517 2 -157 55
-203 234 -203 261 0 489 -186 489 -399 0 -77 41 -141 90 -141 49 0 90 -81 90
-180 0 -99 31 -180 68 -180 82 0 292 -644 292 -893 0 -97 41 -201 90 -232 49
-31 90 -283 90 -561 0 -279 47 -636 104 -794 l104 -288 -212 -303 c-117 -167
-277 -365 -356 -439 -175 -165 -720 -1227 -720 -1403 0 -70 -41 -127 -90 -127
-49 0 -90 -102 -90 -226 0 -125 -37 -297 -81 -383 -45 -86 -129 -338 -186
-561 -58 -223 -143 -529 -189 -681 -131 -433 -99 -778 104 -1111 l187 -307
-120 -233 c-158 -307 -926 -1060 -1155 -1133 -99 -31 -180 -95 -180 -141 0
-46 -81 -84 -180 -84 -99 0 -180 -40 -180 -90 0 -49 -81 -90 -180 -90 -99 0
-180 -38 -180 -84 0 -46 -79 -109 -175 -140 -254 -80 -725 -543 -725 -712 0
-79 -41 -144 -90 -144 -49 0 -90 -99 -90 -220 0 -121 -41 -244 -90 -275 -49
-31 -90 -134 -90 -230 0 -96 -41 -175 -90 -175 -49 0 -90 119 -90 265 0 145
41 289 90 320 49 31 90 117 90 192 0 132 459 858 693 1097 64 65 117 150 117
188 0 39 101 188 225 332 124 143 225 312 225 374 0 61 34 112 75 112 41 0
132 111 202 248 70 136 148 267 173 292 215 215 888 1636 1087 2295 59 198
141 441 181 540 206 510 267 2630 101 3510 -193 1020 -220 1127 -299 1176 -44
27 -80 128 -80 224 0 96 -41 175 -90 175 -49 0 -90 81 -90 180 0 99 -41 180
-90 180 -49 0 -90 58 -90 130 0 143 -1128 1310 -1266 1310 -47 0 -213 122
-368 270 -156 149 -320 270 -366 270 -103 0 -243 142 -500 509 -269 383 -255
419 138 357 185 -29 600 -79 922 -111z m-21496 -237 c215 -112 469 -274 565
-360 96 -87 228 -158 293 -158 65 0 118 -40 118 -90 0 -151 808 -109 867 45
67 172 164 171 339 -4 106 -106 182 -117 316 -45 97 52 515 94 930 94 l753 0
467 -493 c636 -671 613 -947 -76 -947 -302 0 -891 -259 -907 -399 -7 -53 -21
-182 -33 -286 -28 -264 -122 -395 -283 -395 -280 0 -393 -244 -393 -849 0
-334 39 -591 90 -591 50 0 90 -61 90 -136 0 -192 178 -480 510 -821 157 -162
311 -377 344 -479 32 -101 96 -184 142 -184 124 0 102 -323 -29 -432 -221
-183 -575 -217 -723 -70 -77 78 -205 142 -283 142 -77 0 -141 41 -141 90 0 50
-121 90 -270 90 -148 0 -270 41 -270 90 0 50 -154 90 -342 90 -188 0 -380 37
-427 82 -171 164 -2715 340 -2858 197 -54 -54 -172 -99 -262 -99 -153 0 -511
-162 -611 -277 -25 -28 -112 -76 -194 -106 -198 -73 -664 -764 -742 -1102 -34
-148 -86 -365 -116 -482 -61 -244 190 -1517 420 -2128 109 -290 287 -708 373
-876 43 -86 79 -218 79 -293 0 -75 41 -136 90 -136 50 0 90 -81 90 -180 0 -99
41 -180 90 -180 50 0 90 -54 90 -119 0 -129 523 -1247 617 -1321 32 -25 111
-148 176 -274 204 -397 1152 -666 1357 -386 81 110 471 319 515 275 56 -56
-860 -981 -1221 -1235 -313 -220 -706 -561 -1379 -1195 -367 -346 -551 -378
-354 -62 286 458 -16 1439 -537 1747 -363 215 -1035 897 -1107 1125 -33 102
-94 185 -137 185 -43 0 -104 81 -135 179 -31 99 -105 232 -163 296 -150 162
-424 620 -483 808 -28 86 -86 157 -129 157 -44 0 -80 81 -80 180 0 99 -40 180
-90 180 -49 0 -90 81 -90 180 0 99 -40 180 -90 180 -49 0 -90 81 -90 180 0 99
-40 180 -90 180 -49 0 -90 79 -90 175 0 96 -40 199 -90 230 -49 31 -90 154
-90 275 0 121 -40 220 -90 220 -49 0 -90 99 -90 220 0 121 -40 244 -90 275
-49 31 -90 193 -90 360 0 167 -40 329 -90 360 -54 33 -90 606 -90 1417 l0
1361 193 545 c241 677 680 1356 977 1510 124 64 245 137 270 162 25 25 146 90
270 146 124 55 332 150 462 212 310 146 2494 6 2733 -176 195 -148 2381 -310
2689 -198 162 58 383 106 491 106 190 0 275 31 711 256 111 57 266 104 344
104 227 0 400 233 400 540 0 306 -173 540 -399 540 -77 0 -141 41 -141 90 0
50 -152 90 -337 90 -186 1 -471 82 -633 180 l-294 180 -988 0 c-898 0 -1157
65 -898 225 142 88 105 748 -55 993 -181 275 -74 280 429 20z m-644 -573 c0
-168 -40 -305 -90 -305 -147 0 -102 -451 61 -614 l152 -151 983 26 983 25 158
-183 c124 -142 268 -183 648 -183 269 0 538 -49 597 -108 269 -269 7 -612
-465 -612 -174 0 -338 -35 -365 -78 -71 -115 -817 -219 -1537 -215 -589 3
-994 56 -2340 304 -902 166 -2745 92 -2745 -110 0 -45 -60 -81 -134 -81 -74 0
-221 -71 -328 -157 -606 -493 -798 -685 -798 -797 0 -69 -33 -126 -74 -126
-88 0 -466 -811 -466 -1001 0 -73 -38 -171 -84 -218 -46 -48 -106 -511 -133
-1031 -27 -520 -50 -962 -51 -982 -1 -21 -149 109 -329 289 l-326 326 101 403
c56 222 102 545 102 719 0 173 41 339 90 370 50 31 90 175 90 320 0 146 41
265 90 265 50 0 90 81 90 180 0 99 41 180 90 180 50 0 90 57 90 126 0 214 884
1045 1172 1103 183 37 268 107 268 222 l0 169 -472 0 c-367 0 -528 48 -720
213 l-248 213 0 547 c0 300 41 571 90 602 50 31 90 134 90 230 0 96 41 175 90
175 50 0 90 -40 90 -90 0 -49 200 -90 445 -90 244 0 469 -40 500 -90 31 -49
195 -90 365 -90 171 0 310 -40 310 -90 0 -49 82 -90 181 -90 100 0 252 -37
338 -82 86 -46 288 -132 449 -191 160 -60 292 -144 292 -188 0 -43 81 -79 180
-79 99 0 180 -40 180 -90 0 -49 81 -90 180 -90 99 0 180 -40 180 -90 0 -251
377 -53 642 338 160 235 316 447 346 472 31 25 153 187 273 360 417 605 719
657 719 125z m-16348 -1047 c45 -763 144 -1449 331 -2318 185 -853 -9 -2880
-274 -2880 -108 0 -543 570 -689 900 -76 173 -184 411 -240 529 -64 133 -99
725 -92 1575 l10 1361 213 552 c208 538 509 1023 634 1023 34 0 82 -334 107
-742z m22657 498 c144 -85 284 -227 312 -315 28 -89 80 -161 115 -161 36 0
118 -179 182 -398 l118 -397 -278 -291 c-153 -160 -278 -345 -278 -412 0 -67
-34 -122 -76 -122 -146 0 -315 -945 -205 -1150 185 -346 128 -470 -218 -470
-430 0 -941 519 -941 955 0 69 -31 125 -68 125 -88 0 -258 414 -327 795 -84
470 61 645 535 645 996 0 1277 255 940 855 -290 516 -245 597 189 341z m974
-1863 c113 -136 -198 -953 -363 -953 -44 0 -80 -81 -80 -180 0 -106 -60 -180
-145 -180 l-145 0 62 418 c111 736 439 1175 671 895z m-2912 -542 c71 -70 129
-168 129 -216 0 -121 389 -863 473 -900 37 -17 67 -148 67 -293 0 -144 41
-262 90 -262 50 0 90 -160 90 -355 0 -195 41 -379 90 -410 50 -31 90 -314 90
-630 0 -316 -40 -599 -90 -630 -49 -31 -90 -131 -90 -223 0 -174 -755 -992
-915 -992 -188 0 -1217 -1144 -1416 -1575 -115 -247 -245 -520 -289 -606 -44
-86 -80 -236 -80 -332 0 -97 -36 -199 -80 -226 -76 -47 -110 -195 -260 -1130
-49 -307 -108 -411 -245 -432 -282 -44 -604 -222 -889 -491 -514 -485 -1014
-349 -1411 382 -121 223 -250 419 -287 435 -38 17 -68 80 -68 141 0 104 -263
722 -453 1065 -48 86 -87 218 -87 293 0 75 -40 136 -90 136 -49 0 -90 79 -90
175 0 96 -40 199 -90 230 -49 31 -90 154 -90 275 0 121 -40 220 -90 220 -49 0
-90 122 -90 270 0 148 -40 270 -90 270 -49 0 -90 132 -90 293 0 161 -40 434
-90 606 -93 324 56 1261 200 1261 39 0 70 62 70 137 0 648 1560 1019 3285 781
1360 -187 2103 -481 845 -334 -1904 222 -3553 -55 -3872 -651 l-119 -223 259
-207 c437 -348 3758 -701 4737 -504 276 56 591 101 702 101 300 0 662 403 630
703 -19 182 51 321 263 525 440 420 313 921 -446 1760 -189 209 -344 450 -344
536 0 85 -40 180 -90 211 -49 31 -90 256 -90 500 0 474 144 584 411 316z
m6249 -502 c0 -325 -196 -989 -292 -989 -37 0 -68 122 -68 270 0 148 41 270
90 270 49 0 90 162 90 360 0 198 41 360 90 360 49 0 90 -122 90 -271z m17015
-517 c-64 -136 -152 -317 -196 -403 -321 -631 34 -1854 649 -2234 194 -120
352 -248 352 -286 0 -38 79 -69 175 -69 96 0 199 -40 230 -90 31 -49 154 -90
275 -90 121 0 220 -36 220 -81 0 -44 192 -106 428 -136 506 -66 1531 -202
2407 -320 347 -47 784 -112 972 -144 l342 -60 -153 -169 c-85 -94 -208 -170
-275 -170 -67 0 -121 -34 -121 -76 0 -71 -565 -372 -1080 -576 -124 -49 -295
-125 -381 -169 -86 -43 -236 -79 -332 -79 -97 0 -201 -40 -232 -90 -31 -49
-172 -90 -315 -90 -143 0 -284 -40 -315 -90 -31 -49 -193 -90 -360 -90 -167 0
-329 -40 -360 -90 -31 -49 -207 -90 -392 -90 -185 0 -378 -41 -429 -92 -58
-58 -707 -83 -1751 -68 l-1658 25 31 225 c17 124 68 238 113 255 44 17 81 88
81 159 0 125 39 222 256 642 57 111 104 281 104 377 0 97 41 201 90 232 49 31
90 175 90 320 0 146 36 265 81 265 44 0 103 172 131 383 28 210 89 686 136
1057 133 1053 187 1182 724 1723 536 542 649 588 463 189z m-42935 -777 c0
-296 1456 -1315 1881 -1315 84 0 191 -37 238 -82 48 -45 289 -103 536 -130
1511 -164 1580 -278 225 -376 -1366 -99 -2458 -35 -2572 150 -80 128 -488 90
-488 -46 0 -176 -211 -328 -342 -247 -119 74 -55 607 84 693 43 27 78 165 78
306 0 366 196 1172 285 1172 41 0 75 -56 75 -125z m22216 -415 c293 -297 598
-540 679 -540 80 0 145 -35 145 -78 0 -167 1008 -258 1620 -146 l315 58 113
-366 c258 -840 200 -879 -1418 -943 -1626 -65 -2360 -137 -2470 -243 -48 -45
-161 -82 -252 -82 -637 0 -824 -956 -329 -1682 288 -422 962 -1108 1089 -1108
35 0 159 -91 275 -202 219 -210 313 -269 922 -580 401 -205 741 -355 945 -415
81 -24 -18 -102 -247 -196 -211 -86 -383 -183 -383 -215 0 -141 -571 -296
-925 -252 -913 116 -1415 354 -1415 672 0 284 -1033 1098 -1394 1098 l-226 0
0 -415 0 -416 333 -304 c183 -168 385 -305 450 -305 64 0 117 -40 117 -90 0
-49 53 -90 117 -90 294 0 575 -231 676 -555 130 -417 139 -885 17 -885 -49 0
-90 -99 -90 -220 0 -121 -36 -242 -80 -269 -44 -27 -106 -202 -138 -388 -471
-2750 -590 -3737 -679 -5648 -103 -2184 -280 -3084 -596 -3032 -466 78 -977
557 -593 557 40 0 129 205 198 456 68 250 156 475 196 500 105 65 88 1453 -18
1519 -49 31 -90 135 -90 232 0 96 -36 246 -79 332 -140 273 -257 594 -371
1011 -61 223 -144 486 -185 585 -131 320 -194 875 -231 2070 -39 1230 -131
1575 -419 1575 l-175 0 51 923 c28 507 95 1145 149 1417 53 272 121 627 149
788 28 162 87 316 131 343 44 27 80 129 80 226 0 96 37 246 82 332 46 86 153
318 239 516 156 360 1302 1575 1485 1575 165 0 801 720 862 975 31 132 95 289
142 348 86 109 46 1139 -68 1760 l-62 337 411 0 411 0 534 -540z m3405 -383
c-116 -372 -241 -445 -241 -142 0 170 256 569 323 502 13 -13 -24 -175 -82
-360z m15749 -314 c-55 -628 -137 -1087 -237 -1328 -41 -99 -170 -494 -286
-877 -117 -383 -242 -697 -279 -698 -38 0 -68 -53 -68 -117 0 -149 -208 -601
-277 -602 -134 -2 -282 456 -223 690 34 140 85 386 111 547 27 162 85 316 129
343 44 27 80 166 80 309 0 143 41 284 90 315 49 31 90 135 90 232 0 96 41 256
90 354 49 99 131 259 180 358 49 98 90 240 90 315 0 75 36 136 79 136 44 0
129 122 191 270 180 435 290 321 240 -247z m-23640 -527 c1073 -54 1573 -156
1781 -365 l122 -121 -158 -157 -157 -158 -2193 9 c-1528 5 -2225 40 -2297 112
-57 57 -217 104 -356 104 -192 0 -252 43 -252 180 0 118 60 180 175 180 96 0
199 41 230 90 31 50 246 95 478 101 232 6 544 43 692 83 149 40 412 55 585 33
173 -22 781 -63 1350 -91z m-8813 -463 c70 -137 167 -276 215 -311 178 -127
-50 -188 -267 -72 -159 85 -225 196 -225 375 0 323 113 326 277 8z m-2527
-104 c783 -96 1170 -185 1170 -270 0 -33 122 -132 270 -220 257 -151 372 -419
180 -419 -49 0 -91 -91 -92 -202 -1 -112 -81 -304 -178 -428 -97 -124 -177
-257 -178 -297 -7 -234 -720 -674 -723 -445 -1 100 -455 292 -692 292 -114 0
-207 37 -207 82 0 46 -273 107 -607 136 -2370 209 -2866 280 -2954 422 -27 44
-146 80 -264 80 -118 0 -239 41 -270 90 -31 50 -134 90 -230 90 -96 0 -175 41
-175 90 0 50 -57 90 -126 90 -124 0 -865 355 -954 457 -25 28 -116 77 -202
109 -478 177 -100 423 466 305 704 -147 3493 -25 3677 161 67 68 959 16 2089
-123z m-7087 -134 c303 -230 -190 -875 -906 -1186 -183 -79 -402 -181 -488
-227 -829 -437 -605 191 291 816 173 120 416 331 540 467 254 280 339 300 563
130z m27965 -343 c348 -60 632 -141 632 -180 0 -40 81 -72 180 -72 99 0 180
-40 180 -90 0 -49 44 -90 99 -90 138 0 621 -355 621 -456 0 -116 -568 -105
-873 17 -896 358 -1647 781 -1647 928 0 72 93 65 808 -57z m-26827 -432 c55 0
99 -40 99 -90 0 -49 81 -90 180 -90 99 0 180 -40 180 -90 0 -49 61 -90 136
-90 75 0 207 -36 293 -79 86 -44 257 -120 381 -169 124 -49 338 -135 477 -191
138 -55 351 -101 472 -101 122 0 221 -37 221 -81 0 -45 375 -105 833 -133
1717 -105 2949 -351 2946 -589 -1 -69 -453 -277 -602 -277 -64 0 -117 -40
-117 -90 0 -49 -122 -90 -270 -90 -148 0 -270 -40 -270 -90 0 -49 -154 -90
-342 -90 -188 0 -380 -37 -428 -82 -47 -46 -328 -105 -625 -133 -297 -27 -844
-90 -1215 -140 -371 -50 -867 -116 -1102 -147 -236 -31 -428 -93 -428 -137 0
-45 -102 -81 -226 -81 -125 0 -297 -35 -383 -79 -86 -43 -338 -171 -561 -283
-223 -113 -496 -249 -607 -304 -111 -54 -202 -129 -202 -166 -1 -38 -203 -68
-451 -68 -247 0 -450 -40 -450 -90 0 -49 -121 -90 -270 -90 -148 0 -270 -40
-270 -90 0 -49 -81 -90 -180 -90 -99 0 -180 -40 -180 -90 0 -49 -62 -90 -138
-90 -372 0 -179 -440 318 -723 l135 -77 -180 -137 c-111 -85 -375 -138 -690
-140 l-510 -3 -367 418 -368 417 0 573 c0 321 39 572 90 572 50 0 90 52 90
115 0 64 203 328 450 587 248 260 450 532 450 605 0 73 36 133 80 133 44 0
104 122 135 270 30 148 80 392 110 540 l55 270 283 1 c155 1 444 63 642 139
198 75 431 160 518 189 86 28 157 88 157 131 0 44 59 80 131 80 72 0 325 198
562 441 l430 441 240 -171 c132 -94 284 -171 338 -171z m24490 180 c-85 -265
-101 -2199 -19 -2380 134 -298 288 -816 288 -969 0 -339 -853 -323 -1551 30
-86 43 -218 79 -293 79 -75 0 -136 41 -136 90 0 50 -81 90 -180 90 -99 0 -180
41 -180 90 0 50 -53 90 -118 90 -65 0 -197 72 -293 160 -95 88 -316 258 -489
379 -419 291 -1080 989 -1080 1140 0 67 -40 121 -90 121 -130 0 -111 623 23
749 179 170 722 330 1153 342 220 6 521 42 669 80 149 39 736 64 1305 57
l1035 -13 -44 -135z m989 90 c0 -49 53 -90 118 -90 65 0 205 -81 311 -180 107
-99 256 -180 332 -180 77 0 139 -40 139 -90 0 -49 81 -90 180 -90 99 0 180
-40 180 -90 0 -49 81 -90 180 -90 99 0 180 -40 180 -90 0 -49 122 -90 270 -90
149 0 270 -40 270 -90 0 -49 203 -90 450 -90 l450 0 0 -535 c0 -294 41 -559
90 -590 49 -31 90 -154 90 -275 0 -121 41 -220 90 -220 49 0 90 -81 90 -180 0
-99 31 -180 69 -180 38 0 165 -156 283 -347 118 -191 368 -442 555 -558 188
-116 390 -301 449 -412 l108 -202 -140 -140 c-78 -78 -245 -141 -373 -141
-127 0 -231 -40 -231 -90 0 -56 -493 -90 -1300 -90 l-1300 0 -153 259 c-142
241 -969 821 -1171 821 -50 0 -199 51 -332 113 l-243 112 0 384 c-1 211 -37
454 -80 540 -296 585 -383 1946 -169 2632 l112 359 248 0 c136 0 248 -40 248
-90z m-16919 -181 c114 -99 184 -204 154 -234 -30 -30 -160 51 -289 180 -275
275 -169 318 135 54z m40462 -201 c-29 -62 -78 -184 -108 -270 -31 -87 -92
-158 -135 -158 -44 0 -80 -78 -80 -172 0 -95 -32 -186 -71 -203 -39 -17 -183
-263 -321 -547 l-251 -517 -184 98 c-101 54 -564 102 -1029 106 -464 3 -844
40 -844 81 0 41 81 74 180 74 99 0 180 41 180 90 0 50 122 90 270 90 149 0
270 41 270 90 0 50 57 90 126 90 300 0 1099 500 1537 963 269 284 561 401 460
185z m-40897 -92 c334 -322 658 -514 793 -471 441 140 441 -727 -2 -3397 -52
-310 -115 -745 -140 -968 -26 -223 -82 -486 -127 -585 -44 -99 -103 -362 -132
-585 -72 -558 -198 -1409 -276 -1867 -67 -389 -222 -531 -222 -203 0 99 -40
180 -90 180 -49 0 -90 81 -90 180 0 99 -40 180 -90 180 -49 0 -90 53 -90 118
0 65 -71 198 -157 296 -87 98 -249 306 -360 463 l-203 286 0 954 c0 1279 196
2023 533 2023 239 0 1087 847 1087 1086 0 96 41 174 90 174 148 0 102 286 -67
415 -304 230 -822 154 -1140 -167 -300 -303 -341 -377 -591 -1058 -98 -266
-208 -413 -323 -430 -96 -13 -316 -67 -489 -119 -173 -52 -477 -81 -675 -65
l-360 30 432 206 c655 313 1323 996 1323 1351 0 213 93 383 360 658 198 204
360 427 360 495 0 68 31 124 68 124 63 0 194 265 324 653 62 187 97 193 254
43z m-20626 -1146 c0 -49 97 -90 216 -90 235 0 864 -563 864 -774 0 -69 30
-126 68 -127 80 -1 292 -436 292 -602 0 -64 41 -117 90 -117 50 0 90 -81 90
-180 0 -99 41 -180 90 -180 50 0 90 -51 90 -112 0 -62 101 -231 225 -374 242
-282 314 -516 89 -291 -74 74 -216 161 -315 192 -98 31 -179 95 -179 141 0 46
-81 84 -180 84 -99 0 -180 32 -180 70 0 39 -192 123 -427 186 -236 64 -498
154 -584 200 -379 204 -2409 29 -2409 -208 0 -37 -72 -68 -160 -68 -165 0
-1460 -1285 -1460 -1450 0 -141 -270 -381 -342 -303 -35 37 -12 86 50 108 61
22 112 158 112 303 0 144 41 262 90 262 50 0 90 61 90 136 0 75 34 207 76 293
210 432 269 546 471 917 386 710 1357 1714 1657 1714 75 0 136 32 136 71 0
114 546 263 1013 276 235 7 427 -27 427 -77z m18900 -887 c0 -177 -743 -823
-946 -823 -74 0 -134 -40 -134 -90 0 -49 -81 -90 -180 -90 -99 0 -180 -40
-180 -90 0 -49 -79 -90 -175 -90 -96 0 -199 -40 -230 -90 -31 -49 -152 -90
-270 -90 -118 0 -239 -40 -270 -90 -31 -49 -146 -90 -257 -90 -111 0 -247 -45
-303 -101 -66 -66 -323 -81 -760 -45 -363 31 -1136 81 -1717 112 -856 45
-1551 214 -883 214 96 0 197 36 224 80 27 43 181 106 342 138 162 32 497 100
744 151 467 95 1262 209 2115 304 555 61 818 123 1822 423 383 115 697 239
698 277 0 37 81 67 180 67 99 0 180 -35 180 -77z m1800 -96 c0 -213 -419 -727
-593 -727 -70 0 -127 -40 -127 -90 0 -49 -40 -90 -90 -90 -186 0 -80 421 187
744 300 366 623 450 623 163z m39651 45 c71 -71 103 -196 71 -279 -60 -157
-68 -157 -977 52 -247 57 -744 123 -1103 147 -1081 70 -641 208 665 208 933 0
1246 -30 1344 -128z m-6974 -52 c875 0 882 -51 58 -448 -809 -390 -1439 -899
-1955 -1579 -230 -303 -720 -1275 -720 -1428 0 -80 -41 -145 -90 -145 -49 0
-90 -121 -90 -270 0 -148 -41 -270 -90 -270 -49 0 -90 -82 -90 -181 0 -254
-210 -899 -292 -899 -37 0 -68 81 -68 180 0 99 -41 180 -90 180 -49 0 -90 64
-90 142 0 134 -666 846 -795 849 -190 5 -296 165 -214 324 48 94 133 281 188
418 310 761 597 1147 854 1147 73 0 146 30 162 68 17 37 222 164 458 284 235
119 427 250 427 292 0 42 58 76 129 76 164 0 1131 961 1131 1123 0 142 173
229 345 175 66 -21 440 -38 832 -38z m8181 -1146 c118 -210 190 -406 161 -435
-82 -82 -969 874 -969 1043 0 422 400 120 808 -608z m-29264 83 c167 -165 274
-327 238 -360 -37 -34 -85 -11 -107 51 -22 61 -99 112 -172 112 -179 0 -573
407 -573 592 l0 150 155 -123 c86 -68 292 -258 459 -422z m20266 -426 c0 -27
-81 -135 -180 -242 -99 -106 -180 -246 -180 -311 0 -65 -30 -118 -68 -118 -37
0 -162 -192 -279 -427 -116 -236 -248 -498 -292 -584 -45 -86 -81 -236 -81
-332 0 -97 -41 -201 -90 -232 -49 -31 -90 -175 -90 -320 0 -146 -41 -265 -90
-265 -49 0 -90 -139 -90 -310 0 -170 -36 -332 -80 -359 -44 -27 -105 -191
-135 -365 -30 -174 -80 -460 -110 -635 -57 -328 -177 -366 -339 -109 -64 101
-61 210 10 355 56 114 127 350 157 523 31 173 78 447 106 608 28 162 87 316
131 343 44 27 80 129 80 226 0 96 47 266 104 377 218 422 256 518 256 650 0
75 41 136 90 136 49 0 90 53 90 118 0 65 81 205 180 311 99 107 180 227 180
268 0 96 564 736 653 740 37 2 67 -19 67 -46z m-33464 -1278 c-35 -1087 -79
-1382 -171 -1125 -22 61 -118 112 -213 112 -94 0 -172 41 -172 90 0 50 -59 90
-131 90 -259 0 -589 212 -589 379 l0 170 -2272 -46 c-2645 -52 -3668 -121
-3668 -248 0 -94 -871 -56 -1417 62 -656 142 -306 266 1147 408 1403 137 1751
188 1840 274 48 44 238 81 423 81 185 0 361 41 392 90 31 50 172 90 315 90
143 0 284 41 315 90 31 50 167 90 302 90 136 0 285 37 332 81 48 45 511 105
1031 133 1136 62 2037 173 2125 261 36 36 151 65 257 65 l191 0 -37 -1147z
m18749 1057 c31 -49 154 -90 275 -90 121 0 220 -31 220 -68 0 -37 122 -122
270 -188 343 -151 359 -327 23 -243 -501 126 -1349 239 -2160 287 -726 43
-1214 212 -613 212 121 0 244 41 275 90 31 50 415 90 855 90 440 0 824 -40
855 -90z m-23636 -168 l213 -60 -213 -105 c-240 -117 -627 -197 -1294 -267
-247 -26 -488 -83 -535 -128 -91 -87 -1400 -117 -1400 -33 0 508 2135 900
3229 593z m-3499 -178 c0 -215 -355 -464 -663 -464 -406 0 -422 123 -34 267
160 61 373 144 472 185 237 100 225 99 225 12z m23382 -259 c213 -33 289 -87
269 -193 -38 -202 -881 -269 -881 -69 0 73 -27 203 -60 289 l-60 157 217 -69
c120 -38 352 -89 515 -115z m3596 -168 c494 -43 652 -90 652 -192 0 -107 -69
-122 -330 -73 -182 34 -992 58 -1800 53 -809 -6 -1470 13 -1470 41 0 29 51
112 113 185 l112 134 1035 -45 c569 -25 1329 -71 1688 -103z m-34613 -104 c47
-107 759 -473 920 -473 80 0 145 -36 145 -80 0 -44 152 -106 338 -138 185 -32
560 -96 832 -142 1349 -229 1260 -193 1032 -421 -100 -100 -219 -120 -428 -73
-424 97 -1309 82 -1774 -29 -223 -54 -516 -124 -652 -158 -137 -33 -248 -96
-248 -139 0 -44 -81 -80 -180 -80 -99 0 -180 -38 -180 -84 0 -46 -81 -110
-180 -141 -234 -74 -998 -828 -1163 -1147 -70 -137 -161 -248 -202 -248 -41 0
-75 -81 -75 -180 0 -99 -40 -180 -90 -180 -49 0 -90 -78 -90 -172 0 -95 -30
-187 -68 -203 -92 -41 -472 -1178 -472 -1414 0 -105 -40 -191 -90 -191 -49 0
-90 -134 -90 -297 0 -163 -36 -335 -81 -383 -44 -47 -103 -247 -131 -445 -125
-885 -164 -1091 -238 -1260 -44 -99 -101 -342 -127 -540 -26 -198 -91 -623
-143 -945 -52 -322 -131 -828 -175 -1125 -44 -297 -128 -844 -185 -1215 -57
-371 -135 -918 -173 -1215 -76 -602 -163 -855 -294 -855 -97 0 -53 733 105
1755 110 712 229 1622 359 2745 134 1166 262 2143 365 2790 51 322 115 747
141 945 26 198 83 441 127 540 43 99 102 332 129 518 114 755 165 971 241
1018 44 27 80 146 80 264 0 118 41 239 90 270 50 31 90 154 90 275 0 121 41
220 90 220 50 0 90 57 90 126 0 150 375 896 473 939 37 17 67 82 67 145 0 170
950 1130 1117 1130 79 0 143 41 143 90 0 50 81 90 180 90 99 0 180 41 180 90
0 105 151 122 195 23z m30945 -563 c0 -49 -40 -90 -90 -90 -49 0 -90 -81 -90
-180 0 -99 -40 -180 -90 -180 -49 0 -90 122 -90 270 0 210 40 270 180 270 99
0 180 -40 180 -90z m1620 -31 c0 -17 -192 -128 -427 -247 -592 -300 -1013
-764 -1013 -1116 0 -76 -79 -136 -180 -136 -203 0 -231 174 -76 474 57 110
131 259 164 330 32 71 137 172 233 225 96 53 194 116 219 141 93 94 503 264
720 299 124 20 255 42 293 49 37 6 67 -2 67 -19z m2443 -137 c32 -7 251 -194
487 -417 236 -223 483 -405 549 -405 67 0 121 -40 121 -90 0 -49 81 -90 180
-90 99 0 180 -40 180 -90 0 -49 -104 -90 -231 -90 -127 0 -308 -42 -403 -92
l-173 -93 -285 273 c-156 149 -339 272 -406 272 -67 0 -122 41 -122 90 0 50
-55 90 -122 90 -155 0 -708 524 -651 617 35 56 644 74 876 25z m1360 -56 c140
-58 240 -586 111 -586 -180 0 -764 484 -764 633 0 78 426 47 653 -47z m2047
-160 c318 -155 630 -527 630 -753 0 -241 -491 -478 -653 -316 -57 57 -229 103
-382 103 -153 0 -317 37 -364 82 -48 46 -184 96 -303 113 -236 33 -533 649
-436 904 l51 132 616 -78 c339 -43 717 -127 841 -187z m-27315 24 c-31 -49
-233 -90 -450 -90 -217 0 -419 -40 -450 -90 -31 -49 -215 -90 -410 -90 -195 0
-355 41 -355 90 0 50 172 91 383 91 210 1 443 41 517 89 181 117 837 117 765
0z m-3611 -163 c25 -40 -64 -151 -197 -247 -574 -415 -1187 -1202 -1187 -1524
0 -75 -36 -136 -80 -136 -44 0 -106 -152 -138 -337 -112 -655 -216 -1334 -281
-1849 -145 -1133 -375 -446 -390 1168 -6 604 -46 1119 -89 1146 -352 217 -157
763 371 1035 136 70 247 161 247 202 0 41 55 75 122 75 67 0 239 118 382 263
l261 263 467 7 c257 4 488 -26 512 -66z m-2441 -202 c363 -101 432 -214 180
-294 -87 -27 -275 -123 -418 -213 -193 -122 -270 -134 -300 -50 -22 61 -118
112 -212 112 -95 0 -173 41 -173 90 0 50 -94 90 -210 90 -273 0 -345 79 -212
231 129 147 870 166 1345 34z m3532 5 c31 -49 134 -90 230 -90 96 0 175 -40
175 -90 0 -49 -53 -90 -118 -90 -65 0 -197 -72 -293 -160 -95 -88 -316 -259
-489 -379 -392 -274 -449 -331 -719 -721 -119 -173 -280 -376 -357 -450 -77
-74 -197 -246 -267 -382 -70 -137 -161 -248 -202 -248 -41 0 -76 -51 -77 -112
-1 -62 -81 -214 -178 -338 l-176 -225 -2 333 c-1 184 33 427 76 540 44 114
131 369 194 566 260 811 1194 1756 1735 1756 84 0 153 41 153 90 0 50 58 90
130 90 71 0 154 -40 185 -90z m6324 6 c86 -46 288 -137 449 -202 160 -65 292
-144 292 -175 0 -32 76 -78 168 -102 l168 -44 56 -754 c60 -813 166 -1507 327
-2149 56 -223 125 -517 152 -654 27 -136 86 -270 129 -297 44 -27 80 -169 80
-314 0 -146 41 -265 90 -265 50 0 90 -118 90 -262 0 -145 46 -278 102 -297 73
-24 67 -97 -22 -252 -295 -513 -211 -500 -1745 -269 -347 52 -802 118 -1012
147 -366 49 -506 216 -293 348 50 31 90 146 90 257 0 111 36 240 80 288 44 47
106 753 137 1570 76 1971 262 3510 424 3510 45 0 152 -38 238 -84z m15415
-411 c-104 -131 -236 -877 -416 -2340 -31 -247 -92 -488 -137 -536 -44 -47
-81 -237 -81 -422 0 -185 -40 -361 -90 -392 -115 -71 -123 1055 -8 1174 45 48
104 309 131 581 64 658 298 2077 385 2340 34 102 75 79 166 -90 67 -123 89
-265 50 -315z m13811 45 c-31 -49 -187 -90 -347 -90 -161 0 -330 -37 -377 -82
-48 -46 -329 -103 -626 -128 -297 -25 -965 -95 -1485 -156 -1019 -118 -1543
-133 -1763 -49 -196 76 -68 235 188 235 118 0 239 41 270 90 31 50 225 95 433
101 207 6 499 41 647 79 419 107 3126 107 3060 0z m1961 -204 c324 -330 694
-959 694 -1181 0 -80 41 -145 90 -145 110 0 117 -628 9 -799 -93 -146 -279
-58 -279 131 0 214 -218 848 -292 848 -37 0 -68 81 -68 180 0 99 -41 180 -90
180 -49 0 -90 78 -90 173 0 94 -30 186 -67 202 -72 32 -383 561 -383 651 0
135 211 28 476 -240z m-35970 -19 c142 -142 171 -947 34 -947 -49 0 -90 -53
-90 -117 0 -166 -212 -601 -292 -602 -38 -1 -68 -79 -68 -173 0 -95 -32 -187
-71 -203 -38 -16 -221 -334 -406 -705 -440 -887 -606 -1163 -852 -1419 l-203
-212 -145 145 c-80 80 -262 168 -406 197 -143 29 -283 88 -309 131 -27 43
-309 78 -628 78 -416 0 -580 33 -580 117 0 166 212 601 293 602 37 1 67 82 67
181 0 99 41 180 90 180 50 0 90 53 90 118 0 65 81 205 180 311 99 107 180 228
180 270 0 43 72 156 160 252 88 95 258 316 379 489 270 388 659 763 1002 966
142 84 259 185 259 223 0 39 81 71 180 71 99 0 180 38 180 84 0 209 739 180
956 -37z m-6108 -157 c211 -105 272 -250 105 -250 -140 0 -1253 -1168 -1253
-1315 0 -69 -40 -125 -90 -125 -51 0 -90 -258 -90 -595 l0 -596 325 -297 c179
-164 503 -350 720 -415 217 -64 395 -148 395 -187 0 -38 76 -70 169 -70 238 0
401 -230 338 -479 -31 -123 2 -284 77 -384 72 -95 132 -247 133 -340 l3 -167
-337 58 c-294 51 -770 238 -1304 512 -86 44 -238 80 -338 80 l-181 0 0 -547
c0 -608 -109 -668 -369 -203 -259 465 -430 2468 -258 3043 194 651 618 1598
740 1652 37 17 67 108 67 203 0 94 34 172 75 172 41 0 130 103 197 228 l122
229 276 -54 c151 -29 366 -98 478 -153z m32692 -795 l0 -546 -337 28 -338 28
-49 428 c-57 498 20 607 427 607 l297 0 0 -545z m-31972 6 c137 -438 156
-2881 22 -2881 -49 0 -90 40 -90 90 0 50 -79 90 -175 90 -96 0 -199 40 -230
90 -31 50 -154 90 -275 90 -121 0 -220 40 -220 90 0 50 -63 90 -139 90 -883 0
-765 1165 217 2134 673 665 742 681 890 207z m11841 247 c156 -166 511 -875
511 -1022 0 -69 41 -126 90 -126 50 0 90 -93 90 -207 0 -114 47 -254 105 -312
159 -159 115 -1729 -53 -1897 l-132 -132 -55 261 c-31 144 -94 332 -140 418
-47 86 -85 256 -85 377 0 122 -40 246 -90 277 -49 31 -90 193 -90 360 0 167
-35 326 -78 352 -43 27 -102 323 -132 658 -30 336 -80 721 -113 858 -62 265 1
315 172 135z m21302 -90 l378 -201 -55 -399 c-66 -484 -103 -527 -327 -387
-96 60 -268 109 -383 109 -313 0 -424 170 -424 648 l0 432 216 0 c120 0 387
-91 595 -202z m1169 -68 c0 -304 -44 -329 -236 -136 l-134 133 118 133 c179
204 252 166 252 -130z m-13062 -592 c-64 -219 -149 -398 -188 -398 -38 0 -70
-63 -70 -141 0 -179 -599 -820 -685 -734 -36 36 -21 156 32 268 54 111 152
334 217 495 66 160 151 292 188 292 37 0 68 53 68 118 0 65 73 197 162 293 89
95 197 255 239 354 l77 180 39 -164 c21 -91 -14 -344 -79 -563z m9642 502 c0
-204 -93 -231 -252 -72 -159 159 -132 252 72 252 120 0 180 -60 180 -180z
m-4899 -607 c-33 -335 -82 -821 -109 -1080 -69 -674 -212 -585 -212 132 0 659
173 1555 301 1555 45 0 53 -268 20 -607z m8139 -574 c0 -241 -31 -439 -68
-439 -160 0 -275 357 -228 709 l50 373 123 -102 c73 -61 123 -280 123 -541z
m-2197 -191 c-34 -260 -99 -797 -145 -1193 -46 -396 -131 -1064 -188 -1485
-142 -1040 -138 -2741 6 -3240 64 -223 135 -739 157 -1147 l40 -743 -209 0
c-632 0 -1006 826 -999 2205 3 749 46 1188 292 3015 50 371 129 1040 176 1485
46 445 113 982 147 1193 l64 382 359 0 360 0 -60 -472z m1216 106 l261 -186 0
-776 c0 -750 -124 -1675 -275 -2047 -319 -786 -496 -1996 -368 -2506 57 -225
103 -540 103 -700 0 -160 47 -421 104 -580 72 -199 79 -438 23 -771 l-82 -483
-377 -27 -377 -28 -3 870 c-1 478 -39 916 -84 972 -231 288 -286 1887 -112
3253 98 777 195 1567 328 2678 l62 517 268 0 c147 0 385 -84 529 -186z m-6759
-381 c0 -114 36 -245 81 -293 85 -90 146 -444 278 -1615 44 -396 124 -963 178
-1260 432 -2384 298 -3298 -305 -2077 -682 1379 -850 2485 -596 3922 57 322
125 798 152 1058 48 464 212 670 212 265z m16200 -238 c0 -195 -41 -379 -90
-410 -49 -31 -90 -134 -90 -230 0 -96 -45 -175 -100 -175 -65 0 -79 88 -38
248 34 136 84 399 110 585 62 445 208 433 208 -18z m-24660 -725 c0 -50 79
-90 175 -90 96 0 199 -40 230 -90 31 -50 162 -90 291 -90 510 0 1434 -510
1252 -692 -117 -117 -719 -18 -970 161 -133 94 -285 171 -339 171 -55 0 -99
34 -99 75 0 41 -111 132 -247 202 -394 203 -601 443 -383 443 50 0 90 -40 90
-90z m7488 -990 c2 -322 -42 -838 -97 -1147 -116 -645 -240 -1380 -354 -2093
-44 -272 -123 -601 -177 -731 l-97 -237 -231 45 c-239 45 -336 398 -142 518
50 31 90 146 90 257 0 111 37 240 83 288 46 47 103 369 127 715 24 347 88 843
142 1103 182 878 285 1416 333 1732 121 805 317 532 323 -450z m17554 -114
c112 -851 231 -1667 338 -2316 748 -4567 634 -7504 -269 -6933 l-133 85 -12
1331 c-7 733 -58 2000 -115 2817 -56 817 -141 2113 -189 2880 -48 767 -113
1547 -144 1733 -38 221 -23 337 42 337 56 0 100 152 100 345 0 732 276 531
382 -279z m-40477 384 c31 -50 150 -90 266 -90 162 0 416 -259 299 -305 -14
-6 -108 -56 -209 -111 -840 -465 -2160 -23 -1601 536 96 96 1184 69 1245 -30z
m10607 -742 c28 -359 78 -805 110 -990 83 -485 -81 -417 -218 90 -64 235 -154
497 -200 583 -110 205 -107 429 6 429 50 0 90 122 90 270 0 543 162 251 212
-382z m28871 -466 c-95 -196 -162 -663 -278 -1942 -38 -421 -115 -886 -171
-1035 -56 -148 -128 -341 -159 -427 -31 -87 -95 -158 -142 -158 -161 0 37
2286 207 2391 44 27 80 189 80 359 0 171 41 310 90 310 49 0 90 88 90 196 0
173 102 563 256 974 28 76 65 1 84 -173 19 -170 -7 -392 -57 -495z m-38443
398 c0 -99 36 -180 80 -180 79 0 127 -207 269 -1170 149 -1014 877 -2250 1325
-2250 69 0 126 -31 126 -69 0 -38 159 -167 353 -287 195 -120 396 -311 447
-423 l94 -206 -307 -145 c-226 -108 -465 -133 -919 -99 -1412 105 -1592 175
-2304 888 l-520 521 -305 0 c-167 0 -323 -51 -345 -112 -134 -364 -242 223
-299 1620 l-63 1552 256 0 c426 0 1330 208 1617 373 361 207 495 203 495 -13z
m30202 -1012 c-32 -656 -80 -1669 -107 -2250 -29 -609 -88 -1058 -140 -1058
-86 0 -78 413 67 3398 31 651 90 1102 145 1102 60 0 72 -407 35 -1192z m21652
-293 c217 -1673 263 -3645 85 -3645 -191 0 -267 672 -299 2650 -35 2137 28
2430 214 995z m-54523 -742 c31 -830 83 -1907 115 -2395 l59 -886 -170 33
-170 32 -24 2362 c-27 2629 103 3209 190 854z m9524 1345 c331 -35 626 -89
656 -119 113 -113 -495 -278 -826 -223 -187 30 -553 81 -812 111 -494 58 -547
101 -360 291 72 74 225 95 427 59 173 -30 585 -84 915 -119z m1503 -888 c56
-281 102 -774 102 -1096 0 -548 95 -1018 281 -1385 43 -86 79 -199 79 -251 0
-190 636 -722 1175 -983 884 -428 971 -544 542 -722 -368 -153 -2007 -9 -2128
187 -27 44 -118 80 -202 80 -84 0 -294 122 -467 270 -173 148 -366 270 -427
270 -62 0 -113 41 -113 90 0 130 -623 111 -750 -22 -192 -202 -330 -609 -330
-972 0 -388 -112 -446 -472 -243 -277 155 -422 349 -425 567 -2 101 -47 228
-102 283 -127 127 -8 3338 151 4066 l47 213 468 -62 c257 -35 630 -83 828
-107 318 -40 1345 157 1469 281 116 116 178 10 274 -464z m-11598 -1515 c0
-1064 -31 -1935 -68 -1935 -201 0 -504 1229 -437 1770 29 239 79 669 110 954
31 285 92 541 136 568 43 27 79 168 79 313 0 146 41 265 90 265 57 0 90 -705
90 -1935z m25476 1485 c46 0 84 -121 84 -270 0 -148 41 -270 90 -270 50 0 90
-55 90 -123 0 -67 156 -425 347 -796 l346 -674 -165 -104 c-216 -135 -752
-131 -1134 7 l-305 110 60 182 c65 196 198 1005 275 1668 62 538 146 743 193
473 20 -112 73 -203 119 -203z m8277 -2913 c-64 -64 -93 219 -93 908 0 1374
129 1581 160 257 16 -652 -10 -1108 -67 -1165z m-9432 461 c22 -62 7 -356 -32
-653 -145 -1071 -248 -1714 -310 -1917 l-62 -207 -326 27 -326 27 30 180 c68
414 194 1112 285 1575 54 272 120 627 149 788 l51 292 250 0 c138 0 269 -51
291 -112z m-964 -270 c-69 -218 -190 -829 -307 -1553 -146 -902 -351 -963
-1607 -483 -1065 408 -1418 924 -810 1185 461 198 918 333 1126 333 105 0 215
41 246 90 31 50 172 90 315 90 143 0 284 41 315 90 31 50 125 90 210 90 86 0
214 81 285 180 174 242 306 228 227 -22z m2307 42 c292 -20 595 11 709 72 229
122 325 34 416 -384 29 -137 89 -248 132 -248 44 0 79 -119 79 -264 0 -145 41
-372 91 -504 418 -1098 -637 -1738 -2341 -1419 l-405 76 26 178 c15 98 67 441
116 763 49 322 122 808 162 1080 98 668 179 837 360 753 80 -37 375 -83 655
-103z m6880 -2067 c-98 -1432 -159 -1913 -242 -1913 -45 0 -82 41 -82 90 0 50
-53 90 -118 90 -65 0 -205 81 -311 180 -107 99 -228 180 -270 180 -43 0 -158
71 -256 157 -195 172 -427 314 -980 601 -746 387 -781 748 -87 891 147 30 406
82 577 115 170 34 391 137 489 229 137 127 319 167 757 167 l577 0 -54 -787z
m756 -683 c0 -1603 -5 -1625 -331 -1476 l-224 102 50 499 c28 275 74 865 104
1310 63 957 82 1035 263 1035 l138 0 0 -1470z m-32580 -229 c0 -835 25 -1645
56 -1800 43 -214 25 -281 -77 -281 -106 0 -145 198 -190 968 -32 532 -83 1342
-116 1800 l-58 832 193 0 192 0 0 -1519z m33149 1223 c103 -113 166 -215 519
-844 334 -593 81 -1560 -407 -1560 -77 0 -141 -40 -141 -90 0 -49 -41 -90 -90
-90 -56 0 -90 510 -90 1350 0 1359 15 1446 209 1234z m-9974 -1504 l0 -315
-203 -29 c-261 -37 -472 177 -472 478 l0 237 338 -28 337 -28 0 -315z m9045
-1350 c0 -49 82 -90 183 -90 l183 0 -25 -967 -26 -968 -228 -27 -227 -26 -110
410 c-141 528 -143 1509 -2 1650 131 131 252 140 252 18z"/>
<path d="M76680 2528 c0 -95 -51 -190 -112 -211 -89 -30 -87 -69 7 -183 135
-164 71 -334 -125 -334 -72 0 -130 -40 -130 -90 0 -49 41 -90 90 -90 50 0 90
-122 90 -270 0 -346 131 -346 284 0 153 345 256 345 256 0 0 -148 41 -270 90
-270 50 0 90 105 90 233 0 158 58 249 180 281 184 48 253 206 90 206 -130 0
-111 335 23 398 90 42 90 63 0 105 -62 28 -113 130 -113 225 0 227 -146 221
-206 -8 -26 -99 -112 -180 -191 -180 -83 0 -143 75 -143 180 0 99 -40 180 -90
180 -49 0 -90 -78 -90 -172z"/>
<path d="M77873 2565 c-156 -177 -142 -225 67 -225 l180 0 0 -447 c0 -355 -37
-467 -180 -543 -314 -168 -196 -270 315 -270 505 0 600 71 360 270 -96 80
-135 291 -135 731 l0 619 -247 -3 c-137 -2 -299 -61 -360 -132z"/>
<path d="M78952 2588 c20 -62 135 -127 255 -143 298 -41 416 -168 281 -303
-59 -59 -108 -199 -108 -310 0 -111 -40 -226 -90 -257 -174 -108 -104 -495 90
-495 139 0 180 60 180 265 0 145 41 289 90 320 50 31 90 154 90 275 0 121 36
220 80 220 43 0 104 71 135 158 30 86 79 208 108 270 39 83 -100 112 -548 112
-440 0 -590 -30 -563 -112z"/>
<path d="M80393 2565 c-136 -153 -151 -585 -21 -585 51 0 29 -96 -47 -213
-106 -162 -118 -270 -50 -450 l91 -237 407 0 c224 0 407 41 407 90 0 50 81 90
180 90 99 0 180 -40 180 -90 0 -179 711 -102 831 90 62 99 179 180 260 180 81
0 169 -81 195 -180 l47 -180 392 0 c294 0 420 45 504 180 62 99 148 180 191
180 44 0 100 -81 126 -180 l47 -180 398 0 399 0 121 227 c93 174 97 251 15
333 -58 58 -106 272 -106 475 0 545 -429 799 -771 456 -144 -143 -175 -560
-45 -606 46 -17 27 -106 -41 -199 -205 -278 -403 -118 -403 328 0 565 -423
826 -771 477 -144 -143 -175 -560 -45 -606 46 -17 28 -106 -41 -198 l-124
-169 -122 124 c-67 67 -149 194 -182 281 -36 94 -153 157 -295 157 -310 0
-243 215 79 253 455 54 285 287 -209 287 l-450 0 0 -450 c0 -477 14 -497 255
-368 199 106 508 -109 434 -303 -192 -499 -1041 -60 -1046 541 -4 538 -475
804 -790 445z m493 -188 l143 -143 -123 -76 c-162 -101 -266 -28 -266 187 0
212 58 220 246 32z m2537 -221 c-164 -102 -304 38 -230 230 l56 147 150 -149
150 -150 -126 -78z m1357 55 c0 -28 -81 -51 -180 -51 -171 0 -244 176 -124
296 55 55 304 -145 304 -245z m-3902 -546 l135 -135 -142 -141 -141 -142 -144
144 c-115 115 -122 171 -34 277 137 164 159 164 326 -3z m2520 0 l135 -135
-142 -141 -141 -142 -144 144 c-115 115 -122 171 -34 277 137 164 159 164 326
-3z m1260 0 l135 -135 -142 -141 -141 -142 -144 144 c-115 115 -122 171 -34
277 137 164 159 164 326 -3z"/>
<path d="M85346 2543 c-32 -87 -93 -182 -137 -211 -43 -29 -29 -161 31 -293
l109 -239 345 0 c191 0 346 -32 346 -72 0 -149 -225 -288 -468 -288 -192 0
-252 -43 -252 -180 l0 -180 321 0 c341 0 579 164 579 399 0 81 76 141 180 141
104 0 180 -60 180 -141 0 -463 638 -538 901 -106 229 376 227 737 -7 1066
-282 396 -894 302 -894 -138 0 -77 -61 -141 -135 -141 -74 0 -135 34 -135 76
0 374 -840 641 -964 307z m604 -201 l135 -85 -157 -158 -158 -158 -157 158
-158 158 135 85 c74 47 155 85 180 85 25 0 106 -38 180 -85z m1350 -419 c0
-273 -43 -415 -136 -451 -346 -133 -546 472 -261 787 230 254 397 113 397
-336z"/>
<path d="M87772 2588 c20 -62 135 -127 255 -143 299 -41 383 -143 281 -342
-111 -217 -288 -780 -288 -917 0 -58 81 -106 180 -106 139 0 180 60 180 265 0
145 41 289 90 320 50 31 90 154 90 275 0 121 36 220 80 220 43 0 104 71 135
158 30 86 79 208 108 270 39 83 -100 112 -548 112 -440 0 -590 -30 -563 -112z"/>
</g>
</svg>
